<svg xmlns="http://www.w3.org/2000/svg" id="export" class="canvas" preserveAspectRatio="xMidYMid meet" style="position: absolute; margin: 0px;" width="604" height="203"><rect id="background" fill="#fff" pointer-events="all" width="604" height="203"/><g id="origin" transform="translate(9.225, 9.225) scale(1)"><g id="clusters" class="clusters"/><g id="edge-paths" class="edge-paths"><defs><marker id="arrowhead-vee" viewBox="0 0 10 10" refX="9" refY="5" markerUnits="strokeWidth" markerWidth="8" markerHeight="6" orient="auto" style="fill: rgb(0, 0, 0);"><path d="M 0 0 L 10 5 L 0 10 L 4 5 z" style="stroke-width: 1;"/></marker><marker id="arrowhead-vee-select" viewBox="0 0 10 10" refX="9" refY="5" markerUnits="strokeWidth" markerWidth="8" markerHeight="6" orient="auto" style="fill: rgb(238, 0, 0);"><path d="M 0 0 L 10 5 L 0 10 L 4 5 z" style="stroke-width: 1;"/></marker></defs><path class="edge-path" d="M183.21875,21.5L189.87369791666666,21.5C196.52864583333334,21.5,209.83854166666666,21.5,229.4542361111111,30.416666666666668C249.06993055555554,39.333333333333336,274.9914236111111,57.166666666666664,287.9521701388889,66.08333333333333L300.91291666666666,75" id="edge-3" style="stroke: rgb(0, 0, 0); stroke-width: 1px; fill: none; marker-end: url(&quot;#arrowhead-vee&quot;);"/><path class="edge-path" d="M183.21875,96.5L189.87369791666666,96.5C196.52864583333334,96.5,209.83854166666666,96.5,223.1484375,96.5C236.45833333333334,96.5,249.76822916666666,96.5,256.4231770833333,96.5L263.078125,96.5" id="edge-5" style="stroke: rgb(0, 0, 0); stroke-width: 1px; fill: none; marker-end: url(&quot;#arrowhead-vee&quot;);"/><path class="edge-path" d="M401.25,96.5L403.4166666666667,96.5C405.5833333333333,96.5,409.9166666666667,96.5,414.25,96.5C418.5833333333333,96.5,422.9166666666667,96.5,425.0833333333333,96.5L427.25,96.5" id="edge-6" style="stroke: rgb(0, 0, 0); stroke-width: 1px; fill: none; marker-end: url(&quot;#arrowhead-vee&quot;);"/><path class="edge-path" d="M527.25,96.5L529.8658854166666,96.5C532.4817708333334,96.5,537.7135416666666,96.5,542.9453125,96.5C548.1770833333334,96.5,553.4088541666666,96.5,556.0247395833334,96.5L558.640625,96.5" id="edge-14" style="stroke: rgb(0, 0, 0); stroke-width: 1px; fill: none; marker-end: url(&quot;#arrowhead-vee&quot;);"/><path class="edge-path" d="M39.59375,21.5L43.229166666666664,21.5C46.864583333333336,21.5,54.135416666666664,21.5,61.40625,21.5C68.67708333333333,21.5,75.94791666666667,21.5,79.58333333333333,21.5L83.21875,21.5" id="edge-input" style="stroke: rgb(0, 0, 0); stroke-width: 1px; fill: none; marker-end: url(&quot;#arrowhead-vee&quot;);"/><path class="edge-path" d="M172.9375,161.5L181.30598958333334,161.5C189.67447916666666,161.5,206.41145833333334,161.5,226.9393830128205,154.25C247.4673076923077,147,271.78617788461537,132.5,283.9456129807692,125.25L296.1050480769231,118" id="edge-B_loop_count" style="stroke: rgb(0, 0, 0); stroke-width: 1px; fill: none; marker-end: url(&quot;#arrowhead-vee&quot;);"/></g><g id="edge-labels" class="edge-labels"><g class="edge-label" transform="translate(223.1484375,38.5)" style="opacity: 1;"><g transform="translate(-2.6953125,-7)"><text style="font-family: -apple-system, BlinkMacSystemFont, &quot;Segoe WPC&quot;, &quot;Segoe UI&quot;, Ubuntu, &quot;Droid Sans&quot;, sans-serif, &quot;PingFang SC&quot;; font-size: 10px;"><tspan xml:space="preserve" dy="1em" x="1">3</tspan></text></g></g><g class="edge-label" transform="translate(223.1484375,113.5)" style="opacity: 1;"><g transform="translate(-3,-7)"><text style="font-family: -apple-system, BlinkMacSystemFont, &quot;Segoe WPC&quot;, &quot;Segoe UI&quot;, Ubuntu, &quot;Droid Sans&quot;, sans-serif, &quot;PingFang SC&quot;; font-size: 10px;"><tspan xml:space="preserve" dy="1em" x="1">5</tspan></text></g></g><g class="edge-label" transform="translate(414.25,113.5)" style="opacity: 1;"><g transform="translate(-3,-7)"><text style="font-family: -apple-system, BlinkMacSystemFont, &quot;Segoe WPC&quot;, &quot;Segoe UI&quot;, Ubuntu, &quot;Droid Sans&quot;, sans-serif, &quot;PingFang SC&quot;; font-size: 10px;"><tspan xml:space="preserve" dy="1em" x="1">6</tspan></text></g></g><g class="edge-label" transform="translate(542.9453125,113.5)" style="opacity: 1;"><g transform="translate(-5.6953125,-7)"><text style="font-family: -apple-system, BlinkMacSystemFont, &quot;Segoe WPC&quot;, &quot;Segoe UI&quot;, Ubuntu, &quot;Droid Sans&quot;, sans-serif, &quot;PingFang SC&quot;; font-size: 10px;"><tspan xml:space="preserve" dy="1em" x="1">14</tspan></text></g></g><g class="edge-label" transform="translate(61.40625,38.5)" style="opacity: 1;"><g transform="translate(-11.8125,-7)"><text style="font-family: -apple-system, BlinkMacSystemFont, &quot;Segoe WPC&quot;, &quot;Segoe UI&quot;, Ubuntu, &quot;Droid Sans&quot;, sans-serif, &quot;PingFang SC&quot;; font-size: 10px;"><tspan xml:space="preserve" dy="1em" x="1">input</tspan></text></g></g><g class="edge-label" transform="translate(223.1484375,178.5)" style="opacity: 1;"><g transform="translate(-29.9296875,-7)"><text style="font-family: -apple-system, BlinkMacSystemFont, &quot;Segoe WPC&quot;, &quot;Segoe UI&quot;, Ubuntu, &quot;Droid Sans&quot;, sans-serif, &quot;PingFang SC&quot;; font-size: 10px;"><tspan xml:space="preserve" dy="1em" x="1">B_loop_count</tspan></text></g></g></g><g id="nodes" class="nodes"><g id="node-Add_1" class="node graph-node" transform="translate(133.21875,21.5)" style="opacity: 1;"><g transform="translate(-50,-21.5)"><g><g class="node-item node-item-type" transform="translate(0,0)"><path d="M5,0h90a5,5 0 0 1 5,5v18a0,0 0 0 1 0,0h-100a0,0 0 0 1 0,0v-18a5,5 0 0 1 5,-5z" style="stroke: rgb(0, 0, 0); fill: rgb(0, 0, 0); stroke-width: 0;"/><text x="6" y="16" style="font-family: -apple-system, BlinkMacSystemFont, &quot;Segoe WPC&quot;, &quot;Segoe UI&quot;, Ubuntu, &quot;Droid Sans&quot;, sans-serif, &quot;PingFang SC&quot;; font-size: 11px; text-rendering: geometricprecision; fill: rgb(255, 255, 255);">Add_1</text><title>Add</title></g><g class="node-attribute" transform="translate(0,23)"><path d="M0,0h100a0,0 0 0 1 0,0v15a5,5 0 0 1 -5,5h-90a5,5 0 0 1 -5,-5v-15a0,0 0 0 1 0,0z" style="stroke: rgb(0, 0, 0); fill: rgb(255, 255, 255); stroke-width: 0;"/><text id="initializer-2" xml:space="preserve" x="6" y="14" style="font-family: -apple-system, BlinkMacSystemFont, &quot;Segoe WPC&quot;, &quot;Segoe UI&quot;, Ubuntu, &quot;Droid Sans&quot;, sans-serif, &quot;PingFang SC&quot;; font-size: 9px; font-weight: normal; text-rendering: geometricprecision;"><title>float32</title><tspan>B</tspan><tspan> = 1</tspan></text><line class="node" x1="0" x2="100" y1="0" y2="0" style="stroke: rgb(51, 51, 51); fill: none; stroke-width: 1px;"/></g><path class="node border" d="M5,0h90a5,5 0 0 1 5,5v33a5,5 0 0 1 -5,5h-90a5,5 0 0 1 -5,-5v-33a5,5 0 0 1 5,-5z" style="stroke: rgb(51, 51, 51); fill: none; stroke-width: 1px;"/></g></g></g><g id="node-Cast_3" class="node graph-node" transform="translate(133.21875,96.5)" style="opacity: 1;"><g transform="translate(-50,-28.5)"><g><g class="node-item node-item-type" transform="translate(0,0)"><path d="M5,0h90a5,5 0 0 1 5,5v18a0,0 0 0 1 0,0h-100a0,0 0 0 1 0,0v-18a5,5 0 0 1 5,-5z" style="stroke: rgb(0, 0, 0); fill: rgb(0, 0, 0); stroke-width: 0;"/><text x="6" y="16" style="font-family: -apple-system, BlinkMacSystemFont, &quot;Segoe WPC&quot;, &quot;Segoe UI&quot;, Ubuntu, &quot;Droid Sans&quot;, sans-serif, &quot;PingFang SC&quot;; font-size: 11px; text-rendering: geometricprecision; fill: rgb(255, 255, 255);">Cast_3</text><title>Cast</title></g><g class="node-attribute" transform="translate(0,23)"><path d="M0,0h100a0,0 0 0 1 0,0v29a5,5 0 0 1 -5,5h-90a5,5 0 0 1 -5,-5v-29a0,0 0 0 1 0,0z" style="stroke: rgb(0, 0, 0); fill: rgb(255, 255, 255); stroke-width: 0;"/><text id="initializer-4" xml:space="preserve" x="6" y="14" style="font-family: -apple-system, BlinkMacSystemFont, &quot;Segoe WPC&quot;, &quot;Segoe UI&quot;, Ubuntu, &quot;Droid Sans&quot;, sans-serif, &quot;PingFang SC&quot;; font-size: 9px; font-weight: normal; text-rendering: geometricprecision;"><title>int64</title><tspan>input</tspan><tspan> = 1</tspan></text><text xml:space="preserve" x="6" y="28" style="font-family: -apple-system, BlinkMacSystemFont, &quot;Segoe WPC&quot;, &quot;Segoe UI&quot;, Ubuntu, &quot;Droid Sans&quot;, sans-serif, &quot;PingFang SC&quot;; font-size: 9px; font-weight: normal; text-rendering: geometricprecision;"><title>int64</title><tspan>to</tspan><tspan> = 9</tspan></text><line class="node" x1="0" x2="100" y1="0" y2="0" style="stroke: rgb(51, 51, 51); fill: none; stroke-width: 1px;"/></g><path class="node border" d="M5,0h90a5,5 0 0 1 5,5v47a5,5 0 0 1 -5,5h-90a5,5 0 0 1 -5,-5v-47a5,5 0 0 1 5,-5z" style="stroke: rgb(51, 51, 51); fill: none; stroke-width: 1px;"/></g></g></g><g id="node-Loop_4" class="node graph-node" transform="translate(332.1640625,96.5)" style="opacity: 1;"><g transform="translate(-69.0859375,-21.5)"><g><g class="node-item node-item-type" transform="translate(0,0)"><path d="M5,0h128.171875a5,5 0 0 1 5,5v18a0,0 0 0 1 0,0h-138.171875a0,0 0 0 1 0,0v-18a5,5 0 0 1 5,-5z" style="stroke: rgb(0, 0, 0); fill: rgb(0, 0, 0); stroke-width: 0;"/><text x="6" y="16" style="font-family: -apple-system, BlinkMacSystemFont, &quot;Segoe WPC&quot;, &quot;Segoe UI&quot;, Ubuntu, &quot;Droid Sans&quot;, sans-serif, &quot;PingFang SC&quot;; font-size: 11px; text-rendering: geometricprecision; fill: rgb(255, 255, 255);">Loop_4</text><title>Loop</title></g><g class="node-attribute" transform="translate(0,23)"><path d="M0,0h138.171875a0,0 0 0 1 0,0v15a5,5 0 0 1 -5,5h-128.171875a5,5 0 0 1 -5,-5v-15a0,0 0 0 1 0,0z" style="stroke: rgb(0, 0, 0); fill: rgb(255, 255, 255); stroke-width: 0;"/><text xml:space="preserve" x="6" y="14" style="font-family: -apple-system, BlinkMacSystemFont, &quot;Segoe WPC&quot;, &quot;Segoe UI&quot;, Ubuntu, &quot;Droid Sans&quot;, sans-serif, &quot;PingFang SC&quot;; font-size: 9px; font-weight: normal; text-rendering: geometricprecision;"><title>graph</title><tspan>body</tspan><tspan> = graph(torch-jit-export1)</tspan></text><line class="node" x1="0" x2="138.171875" y1="0" y2="0" style="stroke: rgb(51, 51, 51); fill: none; stroke-width: 1px;"/></g><path class="node border" d="M5,0h128.171875a5,5 0 0 1 5,5v33a5,5 0 0 1 -5,5h-128.171875a5,5 0 0 1 -5,-5v-33a5,5 0 0 1 5,-5z" style="stroke: rgb(51, 51, 51); fill: none; stroke-width: 1px;"/></g></g></g><g id="node-Mul_9" class="node graph-node" transform="translate(477.25,96.5)" style="opacity: 1;"><g transform="translate(-50,-21.5)"><g><g class="node-item node-item-type" transform="translate(0,0)"><path d="M5,0h90a5,5 0 0 1 5,5v18a0,0 0 0 1 0,0h-100a0,0 0 0 1 0,0v-18a5,5 0 0 1 5,-5z" style="stroke: rgb(0, 0, 0); fill: rgb(0, 0, 0); stroke-width: 0;"/><text x="6" y="16" style="font-family: -apple-system, BlinkMacSystemFont, &quot;Segoe WPC&quot;, &quot;Segoe UI&quot;, Ubuntu, &quot;Droid Sans&quot;, sans-serif, &quot;PingFang SC&quot;; font-size: 11px; text-rendering: geometricprecision; fill: rgb(255, 255, 255);">Mul_9</text><title>Mul</title></g><g class="node-attribute" transform="translate(0,23)"><path d="M0,0h100a0,0 0 0 1 0,0v15a5,5 0 0 1 -5,5h-90a5,5 0 0 1 -5,-5v-15a0,0 0 0 1 0,0z" style="stroke: rgb(0, 0, 0); fill: rgb(255, 255, 255); stroke-width: 0;"/><text id="initializer-13" xml:space="preserve" x="6" y="14" style="font-family: -apple-system, BlinkMacSystemFont, &quot;Segoe WPC&quot;, &quot;Segoe UI&quot;, Ubuntu, &quot;Droid Sans&quot;, sans-serif, &quot;PingFang SC&quot;; font-size: 9px; font-weight: normal; text-rendering: geometricprecision;"><title>float32</title><tspan>B</tspan><tspan> = 100</tspan></text><line class="node" x1="0" x2="100" y1="0" y2="0" style="stroke: rgb(51, 51, 51); fill: none; stroke-width: 1px;"/></g><path class="node border" d="M5,0h90a5,5 0 0 1 5,5v33a5,5 0 0 1 -5,5h-90a5,5 0 0 1 -5,-5v-33a5,5 0 0 1 5,-5z" style="stroke: rgb(51, 51, 51); fill: none; stroke-width: 1px;"/></g></g></g><g class="node graph-input" transform="translate(19.796875,21.5)" style="opacity: 1;"><g transform="translate(-19.796875,-11.5)"><g><g class="node-item graph-item-input" transform="translate(0,0)"><path d="M5,0h29.59375a5,5 0 0 1 5,5v13a5,5 0 0 1 -5,5h-29.59375a5,5 0 0 1 -5,-5v-13a5,5 0 0 1 5,-5z" style="stroke: rgb(0, 0, 0); fill: rgb(238, 238, 238); stroke-width: 0;"/><text x="6" y="16" style="font-family: -apple-system, BlinkMacSystemFont, &quot;Segoe WPC&quot;, &quot;Segoe UI&quot;, Ubuntu, &quot;Droid Sans&quot;, sans-serif, &quot;PingFang SC&quot;; font-size: 11px; text-rendering: geometricprecision;">input</text><title>float32[2,3]</title></g><path class="node border" d="M5,0h29.59375a5,5 0 0 1 5,5v13a5,5 0 0 1 -5,5h-29.59375a5,5 0 0 1 -5,-5v-13a5,5 0 0 1 5,-5z" style="stroke: rgb(51, 51, 51); fill: none; stroke-width: 1px;"/></g></g></g><g class="node graph-input" transform="translate(133.21875,161.5)" style="opacity: 1;"><g transform="translate(-39.71875,-11.5)"><g><g class="node-item graph-item-input" transform="translate(0,0)"><path d="M5,0h69.4375a5,5 0 0 1 5,5v13a5,5 0 0 1 -5,5h-69.4375a5,5 0 0 1 -5,-5v-13a5,5 0 0 1 5,-5z" style="stroke: rgb(0, 0, 0); fill: rgb(238, 238, 238); stroke-width: 0;"/><text x="6" y="16" style="font-family: -apple-system, BlinkMacSystemFont, &quot;Segoe WPC&quot;, &quot;Segoe UI&quot;, Ubuntu, &quot;Droid Sans&quot;, sans-serif, &quot;PingFang SC&quot;; font-size: 11px; text-rendering: geometricprecision;">B_loop_count</text><title>int64</title></g><path class="node border" d="M5,0h69.4375a5,5 0 0 1 5,5v13a5,5 0 0 1 -5,5h-69.4375a5,5 0 0 1 -5,-5v-13a5,5 0 0 1 5,-5z" style="stroke: rgb(51, 51, 51); fill: none; stroke-width: 1px;"/></g></g></g><g class="node" transform="translate(571.609375,96.5)" style="opacity: 1;"><g transform="translate(-12.96875,-11.5)"><g><g class="node-item graph-item-output" transform="translate(0,0)"><path d="M5,0h15.9375a5,5 0 0 1 5,5v13a5,5 0 0 1 -5,5h-15.9375a5,5 0 0 1 -5,-5v-13a5,5 0 0 1 5,-5z" style="stroke: rgb(0, 0, 0); fill: rgb(238, 238, 238); stroke-width: 0;"/><text x="6" y="16" style="font-family: -apple-system, BlinkMacSystemFont, &quot;Segoe WPC&quot;, &quot;Segoe UI&quot;, Ubuntu, &quot;Droid Sans&quot;, sans-serif, &quot;PingFang SC&quot;; font-size: 11px; text-rendering: geometricprecision;">14</text><title>float32[2,3]</title></g><path class="node border" d="M5,0h15.9375a5,5 0 0 1 5,5v13a5,5 0 0 1 -5,5h-15.9375a5,5 0 0 1 -5,-5v-13a5,5 0 0 1 5,-5z" style="stroke: rgb(51, 51, 51); fill: none; stroke-width: 1px;"/></g></g></g></g></g></svg>