<svg xmlns="http://www.w3.org/2000/svg" id="export" class="canvas" preserveAspectRatio="xMidYMid meet" style="position: absolute; margin: 0px;" width="315" height="217"><rect id="background" fill="#fff" pointer-events="all" width="315" height="217"/><g id="origin" transform="translate(9.850000000000001, 9.850000000000001) scale(1)"><g id="clusters" class="clusters"/><g id="edge-paths" class="edge-paths"><defs><marker id="arrowhead-vee" viewBox="0 0 10 10" refX="9" refY="5" markerUnits="strokeWidth" markerWidth="8" markerHeight="6" orient="auto" style="fill: rgb(0, 0, 0);"><path d="M 0 0 L 10 5 L 0 10 L 4 5 z" style="stroke-width: 1;"/></marker><marker id="arrowhead-vee-select" viewBox="0 0 10 10" refX="9" refY="5" markerUnits="strokeWidth" markerWidth="8" markerHeight="6" orient="auto" style="fill: rgb(238, 0, 0);"><path d="M 0 0 L 10 5 L 0 10 L 4 5 z" style="stroke-width: 1;"/></marker></defs><path class="edge-path" d="M50,130L50,133.66666666666666C50,137.33333333333334,50,144.66666666666666,50,152C50,159.33333333333334,50,166.66666666666666,50,170.33333333333334L50,174" id="edge-11" style="stroke: rgb(0, 0, 0); stroke-width: 1px; fill: none; marker-end: url(&quot;#arrowhead-vee&quot;);"/><path class="edge-path" d="M244.453125,43L244.453125,46.666666666666664C244.453125,50.333333333333336,244.453125,57.666666666666664,244.453125,66.66666666666667C244.453125,75.66666666666667,244.453125,86.33333333333333,244.453125,91.66666666666667L244.453125,97" id="edge-12" style="stroke: rgb(0, 0, 0); stroke-width: 1px; fill: none; marker-end: url(&quot;#arrowhead-vee&quot;);"/><path class="edge-path" d="M50,33L50,38.333333333333336C50,43.666666666666664,50,54.333333333333336,50,63.333333333333336C50,72.33333333333333,50,79.66666666666667,50,83.33333333333333L50,87" id="edge-x.6" style="stroke: rgb(0, 0, 0); stroke-width: 1px; fill: none; marker-end: url(&quot;#arrowhead-vee&quot;);"/></g><g id="edge-labels" class="edge-labels"><g class="edge-label" transform="translate(60.390625,152)" style="opacity: 1;"><g transform="translate(-5.390625,-7)"><text style="font-family: -apple-system, BlinkMacSystemFont, &quot;Segoe WPC&quot;, &quot;Segoe UI&quot;, Ubuntu, &quot;Droid Sans&quot;, sans-serif, &quot;PingFang SC&quot;; font-size: 10px;"><tspan xml:space="preserve" dy="1em" x="1">11</tspan></text></g></g><g class="edge-label" transform="translate(255.1484375,65)" style="opacity: 1;"><g transform="translate(-5.6953125,-7)"><text style="font-family: -apple-system, BlinkMacSystemFont, &quot;Segoe WPC&quot;, &quot;Segoe UI&quot;, Ubuntu, &quot;Droid Sans&quot;, sans-serif, &quot;PingFang SC&quot;; font-size: 10px;"><tspan xml:space="preserve" dy="1em" x="1">12</tspan></text></g></g><g class="edge-label" transform="translate(61.8828125,65)" style="opacity: 1;"><g transform="translate(-6.8828125,-7)"><text style="font-family: -apple-system, BlinkMacSystemFont, &quot;Segoe WPC&quot;, &quot;Segoe UI&quot;, Ubuntu, &quot;Droid Sans&quot;, sans-serif, &quot;PingFang SC&quot;; font-size: 10px;"><tspan xml:space="preserve" dy="1em" x="1">x.6</tspan></text></g></g></g><g id="nodes" class="nodes"><g id="node-Div_6" class="node graph-node" transform="translate(50,108.5)" style="opacity: 1;"><g transform="translate(-50,-21.5)"><g><g class="node-item node-item-type" transform="translate(0,0)"><path d="M5,0h90a5,5 0 0 1 5,5v18a0,0 0 0 1 0,0h-100a0,0 0 0 1 0,0v-18a5,5 0 0 1 5,-5z" style="stroke: rgb(0, 0, 0); fill: rgb(0, 0, 0); stroke-width: 0;"/><text x="6" y="16" style="font-family: -apple-system, BlinkMacSystemFont, &quot;Segoe WPC&quot;, &quot;Segoe UI&quot;, Ubuntu, &quot;Droid Sans&quot;, sans-serif, &quot;PingFang SC&quot;; font-size: 11px; text-rendering: geometricprecision; fill: rgb(255, 255, 255);">Div_6</text><title>Div</title></g><g class="node-attribute" transform="translate(0,23)"><path d="M0,0h100a0,0 0 0 1 0,0v15a5,5 0 0 1 -5,5h-90a5,5 0 0 1 -5,-5v-15a0,0 0 0 1 0,0z" style="stroke: rgb(0, 0, 0); fill: rgb(255, 255, 255); stroke-width: 0;"/><text id="initializer-10" xml:space="preserve" x="6" y="14" style="font-family: -apple-system, BlinkMacSystemFont, &quot;Segoe WPC&quot;, &quot;Segoe UI&quot;, Ubuntu, &quot;Droid Sans&quot;, sans-serif, &quot;PingFang SC&quot;; font-size: 9px; font-weight: normal; text-rendering: geometricprecision;"><title>int64</title><tspan>B</tspan><tspan> = 10</tspan></text><line class="node" x1="0" x2="100" y1="0" y2="0" style="stroke: rgb(51, 51, 51); fill: none; stroke-width: 1px;"/></g><path class="node border" d="M5,0h90a5,5 0 0 1 5,5v33a5,5 0 0 1 -5,5h-90a5,5 0 0 1 -5,-5v-33a5,5 0 0 1 5,-5z" style="stroke: rgb(51, 51, 51); fill: none; stroke-width: 1px;"/></g></g></g><g id="node-Cast_7" class="node graph-node" transform="translate(244.453125,21.5)" style="opacity: 1;"><g transform="translate(-50,-21.5)"><g><g class="node-item node-item-type" transform="translate(0,0)"><path d="M5,0h90a5,5 0 0 1 5,5v18a0,0 0 0 1 0,0h-100a0,0 0 0 1 0,0v-18a5,5 0 0 1 5,-5z" style="stroke: rgb(0, 0, 0); fill: rgb(0, 0, 0); stroke-width: 0;"/><text x="6" y="16" style="font-family: -apple-system, BlinkMacSystemFont, &quot;Segoe WPC&quot;, &quot;Segoe UI&quot;, Ubuntu, &quot;Droid Sans&quot;, sans-serif, &quot;PingFang SC&quot;; font-size: 11px; text-rendering: geometricprecision; fill: rgb(255, 255, 255);">Cast_7</text><title>Cast</title></g><g class="node-attribute" transform="translate(0,23)"><path d="M0,0h100a0,0 0 0 1 0,0v15a5,5 0 0 1 -5,5h-90a5,5 0 0 1 -5,-5v-15a0,0 0 0 1 0,0z" style="stroke: rgb(0, 0, 0); fill: rgb(255, 255, 255); stroke-width: 0;"/><text xml:space="preserve" x="6" y="14" style="font-family: -apple-system, BlinkMacSystemFont, &quot;Segoe WPC&quot;, &quot;Segoe UI&quot;, Ubuntu, &quot;Droid Sans&quot;, sans-serif, &quot;PingFang SC&quot;; font-size: 9px; font-weight: normal; text-rendering: geometricprecision;"><title>int64</title><tspan>to</tspan><tspan> = 9</tspan></text><line class="node" x1="0" x2="100" y1="0" y2="0" style="stroke: rgb(51, 51, 51); fill: none; stroke-width: 1px;"/></g><path class="node border" d="M5,0h90a5,5 0 0 1 5,5v33a5,5 0 0 1 -5,5h-90a5,5 0 0 1 -5,-5v-33a5,5 0 0 1 5,-5z" style="stroke: rgb(51, 51, 51); fill: none; stroke-width: 1px;"/></g></g></g><g class="node graph-input" transform="translate(97.71875,21.5)" style="opacity: 1;"><g transform="translate(-8.5,-11.5)"><g><g class="node-item graph-item-input" transform="translate(0,0)"><path d="M5,0h7a5,5 0 0 1 5,5v13a5,5 0 0 1 -5,5h-7a5,5 0 0 1 -5,-5v-13a5,5 0 0 1 5,-5z" style="stroke: rgb(0, 0, 0); fill: rgb(238, 238, 238); stroke-width: 0;"/><text x="6" y="16" style="font-family: -apple-system, BlinkMacSystemFont, &quot;Segoe WPC&quot;, &quot;Segoe UI&quot;, Ubuntu, &quot;Droid Sans&quot;, sans-serif, &quot;PingFang SC&quot;; font-size: 11px; text-rendering: geometricprecision;">i</text><title>int64</title></g><path class="node border" d="M5,0h7a5,5 0 0 1 5,5v13a5,5 0 0 1 -5,5h-7a5,5 0 0 1 -5,-5v-13a5,5 0 0 1 5,-5z" style="stroke: rgb(51, 51, 51); fill: none; stroke-width: 1px;"/></g></g></g><g class="node graph-input" transform="translate(150.3359375,21.5)" style="opacity: 1;"><g transform="translate(-19.1171875,-11.5)"><g><g class="node-item graph-item-input" transform="translate(0,0)"><path d="M5,0h28.234375a5,5 0 0 1 5,5v13a5,5 0 0 1 -5,5h-28.234375a5,5 0 0 1 -5,-5v-13a5,5 0 0 1 5,-5z" style="stroke: rgb(0, 0, 0); fill: rgb(238, 238, 238); stroke-width: 0;"/><text x="6" y="16" style="font-family: -apple-system, BlinkMacSystemFont, &quot;Segoe WPC&quot;, &quot;Segoe UI&quot;, Ubuntu, &quot;Droid Sans&quot;, sans-serif, &quot;PingFang SC&quot;; font-size: 11px; text-rendering: geometricprecision;">cond</text><title>boolean</title></g><path class="node border" d="M5,0h28.234375a5,5 0 0 1 5,5v13a5,5 0 0 1 -5,5h-28.234375a5,5 0 0 1 -5,-5v-13a5,5 0 0 1 5,-5z" style="stroke: rgb(51, 51, 51); fill: none; stroke-width: 1px;"/></g></g></g><g class="node graph-input" transform="translate(50,21.5)" style="opacity: 1;"><g transform="translate(-14.21875,-11.5)"><g><g class="node-item graph-item-input" transform="translate(0,0)"><path d="M5,0h18.4375a5,5 0 0 1 5,5v13a5,5 0 0 1 -5,5h-18.4375a5,5 0 0 1 -5,-5v-13a5,5 0 0 1 5,-5z" style="stroke: rgb(0, 0, 0); fill: rgb(238, 238, 238); stroke-width: 0;"/><text x="6" y="16" style="font-family: -apple-system, BlinkMacSystemFont, &quot;Segoe WPC&quot;, &quot;Segoe UI&quot;, Ubuntu, &quot;Droid Sans&quot;, sans-serif, &quot;PingFang SC&quot;; font-size: 11px; text-rendering: geometricprecision;">x.6</text></g><path class="node border" d="M5,0h18.4375a5,5 0 0 1 5,5v13a5,5 0 0 1 -5,5h-18.4375a5,5 0 0 1 -5,-5v-13a5,5 0 0 1 5,-5z" style="stroke: rgb(51, 51, 51); fill: none; stroke-width: 1px;"/></g></g></g><g class="node" transform="translate(244.453125,108.5)" style="opacity: 1;"><g transform="translate(-12.96875,-11.5)"><g><g class="node-item graph-item-output" transform="translate(0,0)"><path d="M5,0h15.9375a5,5 0 0 1 5,5v13a5,5 0 0 1 -5,5h-15.9375a5,5 0 0 1 -5,-5v-13a5,5 0 0 1 5,-5z" style="stroke: rgb(0, 0, 0); fill: rgb(238, 238, 238); stroke-width: 0;"/><text x="6" y="16" style="font-family: -apple-system, BlinkMacSystemFont, &quot;Segoe WPC&quot;, &quot;Segoe UI&quot;, Ubuntu, &quot;Droid Sans&quot;, sans-serif, &quot;PingFang SC&quot;; font-size: 11px; text-rendering: geometricprecision;">12</text></g><path class="node border" d="M5,0h15.9375a5,5 0 0 1 5,5v13a5,5 0 0 1 -5,5h-15.9375a5,5 0 0 1 -5,-5v-13a5,5 0 0 1 5,-5z" style="stroke: rgb(51, 51, 51); fill: none; stroke-width: 1px;"/></g></g></g><g class="node" transform="translate(50,185.5)" style="opacity: 1;"><g transform="translate(-12.9296875,-11.5)"><g><g class="node-item graph-item-output" transform="translate(0,0)"><path d="M5,0h15.859375a5,5 0 0 1 5,5v13a5,5 0 0 1 -5,5h-15.859375a5,5 0 0 1 -5,-5v-13a5,5 0 0 1 5,-5z" style="stroke: rgb(0, 0, 0); fill: rgb(238, 238, 238); stroke-width: 0;"/><text x="6" y="16" style="font-family: -apple-system, BlinkMacSystemFont, &quot;Segoe WPC&quot;, &quot;Segoe UI&quot;, Ubuntu, &quot;Droid Sans&quot;, sans-serif, &quot;PingFang SC&quot;; font-size: 11px; text-rendering: geometricprecision;">11</text></g><path class="node border" d="M5,0h15.859375a5,5 0 0 1 5,5v13a5,5 0 0 1 -5,5h-15.859375a5,5 0 0 1 -5,-5v-13a5,5 0 0 1 5,-5z" style="stroke: rgb(51, 51, 51); fill: none; stroke-width: 1px;"/></g></g></g></g></g></svg>