<svg width="508" height="694" xmlns="http://www.w3.org/2000/svg" xmlns:xlink="http://www.w3.org/1999/xlink" overflow="hidden"><defs><clipPath id="clip0"><rect x="117" y="272" width="508" height="694"/></clipPath></defs><g clip-path="url(#clip0)" transform="translate(-117 -272)"><path d="M176 273 589 273 589 518 176 518Z" fill="#FFFFFF" fill-rule="evenodd"/><path d="M218.501 398.501 218.501 401.49C218.501 404.479 218.501 410.456 238.668 417.289 258.834 424.123 299.168 431.812 319.334 435.656L339.501 439.501" stroke="#000000" stroke-miterlimit="8" fill="none" fill-rule="evenodd"/><path d="M299.502 340.501 299.502 342.73C299.502 344.959 299.502 349.416 299.502 354.583 299.502 359.75 299.502 365.625 299.502 368.564L299.502 371.501" stroke="#000000" stroke-miterlimit="8" fill="none" fill-rule="evenodd"/><path d="M299.501 398.501 299.501 401.478C299.501 404.455 299.501 410.407 306.168 415.907 312.835 421.408 326.168 426.454 332.834 428.978L339.501 431.501" stroke="#000000" stroke-miterlimit="8" fill="none" fill-rule="evenodd"/><path d="M382.502 340.501 382.502 342.73C382.502 344.959 382.502 349.416 382.502 354.583 382.502 359.75 382.502 365.625 382.502 368.564L382.502 371.501" stroke="#000000" stroke-miterlimit="8" fill="none" fill-rule="evenodd"/><path d="M382.502 398.501 382.502 401.439C382.502 404.377 382.502 410.253 382.502 415.419 382.502 420.586 382.502 425.044 382.502 427.272L382.502 429.501" stroke="#000000" stroke-miterlimit="8" fill="none" fill-rule="evenodd"/><path d="M466.502 340.501 466.502 342.73C466.502 344.959 466.502 349.416 466.502 354.583 466.502 359.75 466.502 365.625 466.502 368.564L466.502 371.501" stroke="#000000" stroke-miterlimit="8" fill="none" fill-rule="evenodd"/><path d="M466.501 398.501 466.501 401.478C466.501 404.455 466.501 410.407 459.668 415.907 452.835 421.408 439.168 426.454 432.335 428.978L425.501 431.501" stroke="#000000" stroke-miterlimit="8" fill="none" fill-rule="evenodd"/><path d="M546.501 402.501 546.501 404.789C546.501 407.076 546.501 411.652 526.334 417.818 506.168 423.985 465.835 431.743 445.668 435.622L425.501 439.501" stroke="#000000" stroke-miterlimit="8" fill="none" fill-rule="evenodd"/><path d="M373.501 465.501 372.501 467.751C371.501 470.001 369.501 474.501 368.501 479.001 367.501 483.501 367.501 488.001 367.501 490.251L367.501 492.501" stroke="#000000" stroke-miterlimit="8" fill="none" fill-rule="evenodd"/><path d="M391.501 465.501 392.668 467.751C393.834 470.001 396.168 474.501 397.335 479.001 398.501 483.501 398.501 488.001 398.501 490.251L398.501 492.501" stroke="#000000" stroke-miterlimit="8" fill="none" fill-rule="evenodd"/><path d="M370.501 294.501 358.668 297.42C346.835 300.339 323.168 306.178 311.335 311.344 299.501 316.511 299.501 321.006 299.501 323.254L299.501 325.501" stroke="#000000" stroke-miterlimit="8" fill="none" fill-rule="evenodd"/><path d="M382.502 298.501 382.502 300.751C382.502 303.001 382.502 307.501 382.502 312.001 382.502 316.501 382.502 321.001 382.502 323.251L382.502 325.501" stroke="#000000" stroke-miterlimit="8" fill="none" fill-rule="evenodd"/><path d="M395.501 294.501 407.335 297.42C419.168 300.339 442.835 306.178 454.668 311.344 466.501 316.511 466.501 321.006 466.501 323.254L466.501 325.501" stroke="#000000" stroke-miterlimit="8" fill="none" fill-rule="evenodd"/><text font-family="Segoe UI,Segoe UI_MSFontService,sans-serif" font-weight="400" font-size="6" transform="translate(222.081 412)">10<tspan x="80.4906" y="-63">12</tspan><tspan x="80.4904" y="0">13</tspan><tspan x="163.965" y="-63">14</tspan><tspan x="163.965" y="0">15</tspan><tspan x="247.44" y="-63">16</tspan><tspan x="247.44" y="0">17</tspan><tspan x="327.93" y="0">18</tspan><tspan x="148.173" y="63">19</tspan><tspan x="179.757" y="63">20</tspan><tspan x="80.4905" y="-104">input</tspan><tspan x="163.965" y="-104">input</tspan><tspan x="247.44" y="-104">input</tspan></text><path d="M190.601 371.51 246.401 371.51C248.113 371.51 249.501 372.873 249.501 374.554L249.501 385.51 249.501 385.51 187.501 385.51 187.501 385.51 187.501 374.554C187.501 372.873 188.889 371.51 190.601 371.51Z" stroke="#000000" stroke-width="0" stroke-miterlimit="8" fill="#EEEEEE" fill-rule="evenodd"/><text font-family="Segoe UI,Segoe UI_MSFontService,sans-serif" font-weight="400" font-size="7" transform="translate(191.079 381)">Constant_1</text><path d="M187.501 385.512 249.501 385.512 249.501 385.512 249.501 395.262C249.501 397.057 248.113 398.512 246.401 398.512L190.601 398.512C188.889 398.512 187.501 397.057 187.501 395.262L187.501 385.512 187.501 385.512Z" stroke="#000000" stroke-width="0" stroke-miterlimit="8" fill="#FFFFFF" fill-rule="evenodd"/><text font-family="Segoe UI,Segoe UI_MSFontService,sans-serif" font-weight="400" font-size="6" transform="translate(191.079 393)">value = 0</text><path d="M187.501 385.519 249.501 385.519" stroke="#333333" stroke-miterlimit="8" fill="none" fill-rule="evenodd"/><path d="M190.601 371.511 246.401 371.511C248.113 371.511 249.501 372.916 249.501 374.65L249.501 395.371C249.501 397.105 248.113 398.511 246.401 398.511L190.601 398.511C188.889 398.511 187.501 397.105 187.501 395.371L187.501 374.65C187.501 372.916 188.889 371.511 190.601 371.511Z" stroke="#333333" stroke-miterlimit="8" fill="none" fill-rule="evenodd"/><path d="M285.633 325.506 313.389 325.506C315.114 325.506 316.511 326.966 316.511 328.767L316.511 337.245C316.511 339.046 315.114 340.506 313.389 340.506L285.633 340.506C283.909 340.506 282.511 339.046 282.511 337.245L282.511 328.767C282.511 326.966 283.909 325.506 285.633 325.506Z" stroke="#000000" stroke-width="0" stroke-miterlimit="8" fill-rule="evenodd"/><text fill="#FFFFFF" font-family="Segoe UI,Segoe UI_MSFontService,sans-serif" font-weight="400" font-size="7" transform="translate(285.689 335)">Shape_3</text><path d="M285.633 325.506 313.389 325.506C315.114 325.506 316.511 326.966 316.511 328.767L316.511 337.245C316.511 339.046 315.114 340.506 313.389 340.506L285.633 340.506C283.909 340.506 282.511 339.046 282.511 337.245L282.511 328.767C282.511 326.966 283.909 325.506 285.633 325.506Z" stroke="#333333" stroke-miterlimit="8" fill="none" fill-rule="evenodd"/><path d="M268.611 371.51 330.408 371.51C332.121 371.51 333.509 372.873 333.509 374.554L333.509 385.51 333.509 385.51 265.509 385.51 265.509 385.51 265.509 374.554C265.509 372.873 266.898 371.51 268.611 371.51Z" stroke="#000000" stroke-width="0" stroke-miterlimit="8" fill-rule="evenodd"/><text fill="#FFFFFF" font-family="Segoe UI,Segoe UI_MSFontService,sans-serif" font-weight="400" font-size="7" transform="translate(268.585 381)">ConstantOfShape_4</text><path d="M265.509 385.512 333.509 385.512 333.509 385.512 333.509 395.262C333.509 397.057 332.121 398.512 330.408 398.512L268.611 398.512C266.898 398.512 265.509 397.057 265.509 395.262L265.509 385.512 265.509 385.512Z" stroke="#000000" stroke-width="0" stroke-miterlimit="8" fill="#FFFFFF" fill-rule="evenodd"/><text font-family="Segoe UI,Segoe UI_MSFontService,sans-serif" font-weight="400" font-size="6" transform="translate(268.585 393)">value = [...]</text><path d="M265.509 385.519 333.509 385.519" stroke="#333333" stroke-miterlimit="8" fill="none" fill-rule="evenodd"/><path d="M268.611 371.511 330.408 371.511C332.121 371.511 333.509 372.916 333.509 374.65L333.509 395.371C333.509 397.105 332.121 398.511 330.408 398.511L268.611 398.511C266.898 398.511 265.509 397.105 265.509 395.371L265.509 374.65C265.509 372.916 266.898 371.511 268.611 371.511Z" stroke="#333333" stroke-miterlimit="8" fill="none" fill-rule="evenodd"/><path d="M368.642 325.506 396.398 325.506C398.122 325.506 399.52 326.966 399.52 328.767L399.52 337.245C399.52 339.046 398.122 340.506 396.398 340.506L368.642 340.506C366.918 340.506 365.52 339.046 365.52 337.245L365.52 328.767C365.52 326.966 366.918 325.506 368.642 325.506Z" stroke="#000000" stroke-width="0" stroke-miterlimit="8" fill-rule="evenodd"/><text fill="#FFFFFF" font-family="Segoe UI,Segoe UI_MSFontService,sans-serif" font-weight="400" font-size="7" transform="translate(369.165 335)">Shape_5</text><path d="M368.642 325.506 396.398 325.506C398.122 325.506 399.52 326.966 399.52 328.767L399.52 337.245C399.52 339.046 398.122 340.506 396.398 340.506L368.642 340.506C366.918 340.506 365.52 339.046 365.52 337.245L365.52 328.767C365.52 326.966 366.918 325.506 368.642 325.506Z" stroke="#333333" stroke-miterlimit="8" fill="none" fill-rule="evenodd"/><path d="M351.62 371.51 413.417 371.51C415.129 371.51 416.518 372.873 416.518 374.554L416.518 385.51 416.518 385.51 348.518 385.51 348.518 385.51 348.518 374.554C348.518 372.873 349.907 371.51 351.62 371.51Z" stroke="#000000" stroke-width="0" stroke-miterlimit="8" fill-rule="evenodd"/><text fill="#FFFFFF" font-family="Segoe UI,Segoe UI_MSFontService,sans-serif" font-weight="400" font-size="7" transform="translate(352.06 381)">ConstantOfShape_6</text><path d="M348.518 385.512 416.518 385.512 416.518 385.512 416.518 395.262C416.518 397.057 415.129 398.512 413.417 398.512L351.62 398.512C349.907 398.512 348.518 397.057 348.518 395.262L348.518 385.512 348.518 385.512Z" stroke="#000000" stroke-width="0" stroke-miterlimit="8" fill="#FFFFFF" fill-rule="evenodd"/><text font-family="Segoe UI,Segoe UI_MSFontService,sans-serif" font-weight="400" font-size="6" transform="translate(352.06 393)">value = [...]</text><path d="M348.518 385.519 416.518 385.519" stroke="#333333" stroke-miterlimit="8" fill="none" fill-rule="evenodd"/><path d="M351.62 371.511 413.417 371.511C415.129 371.511 416.518 372.916 416.518 374.65L416.518 395.371C416.518 397.105 415.129 398.511 413.417 398.511L351.62 398.511C349.907 398.511 348.518 397.105 348.518 395.371L348.518 374.65C348.518 372.916 349.907 371.511 351.62 371.511Z" stroke="#333333" stroke-miterlimit="8" fill="none" fill-rule="evenodd"/><path d="M452.651 325.506 480.407 325.506C482.131 325.506 483.529 326.966 483.529 328.767L483.529 337.245C483.529 339.046 482.131 340.506 480.407 340.506L452.651 340.506C450.927 340.506 449.529 339.046 449.529 337.245L449.529 328.767C449.529 326.966 450.927 325.506 452.651 325.506Z" stroke="#000000" stroke-width="0" stroke-miterlimit="8" fill-rule="evenodd"/><text fill="#FFFFFF" font-family="Segoe UI,Segoe UI_MSFontService,sans-serif" font-weight="400" font-size="7" transform="translate(452.638 335)">Shape_7</text><path d="M452.651 325.506 480.407 325.506C482.131 325.506 483.529 326.966 483.529 328.767L483.529 337.245C483.529 339.046 482.131 340.506 480.407 340.506L452.651 340.506C450.927 340.506 449.529 339.046 449.529 337.245L449.529 328.767C449.529 326.966 450.927 325.506 452.651 325.506Z" stroke="#333333" stroke-miterlimit="8" fill="none" fill-rule="evenodd"/><path d="M435.628 371.51 497.425 371.51C499.138 371.51 500.527 372.873 500.527 374.554L500.527 385.51 500.527 385.51 432.527 385.51 432.527 385.51 432.527 374.554C432.527 372.873 433.915 371.51 435.628 371.51Z" stroke="#000000" stroke-width="0" stroke-miterlimit="8" fill-rule="evenodd"/><text fill="#FFFFFF" font-family="Segoe UI,Segoe UI_MSFontService,sans-serif" font-weight="400" font-size="7" transform="translate(435.534 381)">ConstantOfShape_8</text><path d="M432.527 385.512 500.527 385.512 500.527 385.512 500.527 395.262C500.527 397.057 499.138 398.512 497.425 398.512L435.628 398.512C433.915 398.512 432.527 397.057 432.527 395.262L432.527 385.512 432.527 385.512Z" stroke="#000000" stroke-width="0" stroke-miterlimit="8" fill="#FFFFFF" fill-rule="evenodd"/><text font-family="Segoe UI,Segoe UI_MSFontService,sans-serif" font-weight="400" font-size="6" transform="translate(435.534 393)">value = [...]</text><path d="M432.527 385.519 500.527 385.519" stroke="#333333" stroke-miterlimit="8" fill="none" fill-rule="evenodd"/><path d="M435.628 371.511 497.425 371.511C499.138 371.511 500.527 372.916 500.527 374.65L500.527 395.371C500.527 397.105 499.138 398.511 497.425 398.511L435.628 398.511C433.915 398.511 432.527 397.105 432.527 395.371L432.527 374.65C432.527 372.916 433.915 371.511 435.628 371.511Z" stroke="#333333" stroke-miterlimit="8" fill="none" fill-rule="evenodd"/><path d="M518.636 367.51 574.436 367.51C576.148 367.51 577.536 368.872 577.536 370.553L577.536 381.51 577.536 381.51 515.536 381.51 515.536 381.51 515.536 370.553C515.536 368.872 516.924 367.51 518.636 367.51Z" stroke="#000000" stroke-width="0" stroke-miterlimit="8" fill-rule="evenodd"/><text fill="#FFFFFF" font-family="Segoe UI,Segoe UI_MSFontService,sans-serif" font-weight="400" font-size="7" transform="translate(519.009 376)">Cast_9</text><path d="M515.536 381.511 577.536 381.511 577.536 381.511 577.536 399.423C577.536 401.129 576.148 402.511 574.436 402.511L518.636 402.511C516.924 402.511 515.536 401.129 515.536 399.423L515.536 381.511 515.536 381.511Z" stroke="#000000" stroke-width="0" stroke-miterlimit="8" fill="#FFFFFF" fill-rule="evenodd"/><text font-family="Segoe UI,Segoe UI_MSFontService,sans-serif" font-weight="400" font-size="6" transform="translate(519.009 389)">input = 1<tspan x="0" y="8">to = 9</tspan></text><path d="M515.536 381.518 577.536 381.518" stroke="#333333" stroke-miterlimit="8" fill="none" fill-rule="evenodd"/><path d="M518.636 367.51 574.436 367.51C576.148 367.51 577.536 368.884 577.536 370.58L577.536 399.44C577.536 401.135 576.148 402.51 574.436 402.51L518.636 402.51C516.924 402.51 515.536 401.135 515.536 399.44L515.536 370.58C515.536 368.884 516.924 367.51 518.636 367.51Z" stroke="#333333" stroke-miterlimit="8" fill="none" fill-rule="evenodd"/><path d="M342.629 429.517 422.405 429.517C424.124 429.517 425.517 430.977 425.517 432.778L425.517 444.517 425.517 444.517 339.517 444.517 339.517 444.517 339.517 432.778C339.517 430.977 340.911 429.517 342.629 429.517Z" stroke="#000000" stroke-width="0" stroke-miterlimit="8" fill-rule="evenodd"/><text fill="#FFFFFF" font-family="Segoe UI,Segoe UI_MSFontService,sans-serif" font-weight="400" font-size="7" transform="translate(343.21 439)">Loop_10</text><path d="M339.517 444.518 425.517 444.518 425.517 444.518 425.517 462.43C425.517 464.135 424.124 465.518 422.405 465.518L342.629 465.518C340.911 465.518 339.517 464.135 339.517 462.43L339.517 444.518 339.517 444.518Z" stroke="#000000" stroke-width="0" stroke-miterlimit="8" fill="#FFFFFF" fill-rule="evenodd"/><text font-family="Segoe UI,Segoe UI_MSFontService,sans-serif" font-weight="400" font-size="6" transform="translate(343.21 451)">M = 10<tspan x="0" y="9">body = graph(torch</tspan><tspan x="48.6667" y="9">-</tspan><tspan x="50.8333" y="9">jit</tspan>-<tspan x="57.5" y="9">export1)</tspan></text><path d="M339.517 444.529 425.517 444.529" stroke="#333333" stroke-miterlimit="8" fill="none" fill-rule="evenodd"/><path d="M342.629 429.517 422.405 429.517C424.124 429.517 425.517 430.931 425.517 432.675L425.517 462.359C425.517 464.103 424.124 465.517 422.405 465.517L342.629 465.517C340.911 465.517 339.517 464.103 339.517 462.359L339.517 432.675C339.517 430.931 340.911 429.517 342.629 429.517Z" stroke="#333333" stroke-miterlimit="8" fill="none" fill-rule="evenodd"/><path d="M373.678 284.501 392.364 284.501C394.107 284.501 395.521 285.864 395.521 287.545L395.521 295.458C395.521 297.139 394.107 298.501 392.364 298.501L373.678 298.501C371.934 298.501 370.521 297.139 370.521 295.458L370.521 287.545C370.521 285.864 371.934 284.501 373.678 284.501Z" stroke="#000000" stroke-width="0" stroke-miterlimit="8" fill="#EEEEEE" fill-rule="evenodd"/><text font-family="Segoe UI,Segoe UI_MSFontService,sans-serif" font-weight="400" font-size="7" transform="translate(373.771 293)">input</text><path d="M373.678 284.501 392.364 284.501C394.107 284.501 395.521 285.864 395.521 287.545L395.521 295.458C395.521 297.139 394.107 298.501 392.364 298.501L373.678 298.501C371.934 298.501 370.521 297.139 370.521 295.458L370.521 287.545C370.521 285.864 371.934 284.501 373.678 284.501Z" stroke="#333333" stroke-miterlimit="8" fill="none" fill-rule="evenodd"/><path d="M361.797 492.523 372.243 492.523C374.053 492.523 375.52 493.885 375.52 495.566L375.52 503.479C375.52 505.16 374.053 506.523 372.243 506.523L361.797 506.523C359.987 506.523 358.52 505.16 358.52 503.479L358.52 495.566C358.52 493.885 359.987 492.523 361.797 492.523Z" stroke="#000000" stroke-width="0" stroke-miterlimit="8" fill="#EEEEEE" fill-rule="evenodd"/><text font-family="Segoe UI,Segoe UI_MSFontService,sans-serif" font-weight="400" font-size="7" transform="translate(362.213 502)">19</text><path d="M361.797 492.523 372.243 492.523C374.053 492.523 375.52 493.885 375.52 495.566L375.52 503.479C375.52 505.16 374.053 506.523 372.243 506.523L361.797 506.523C359.987 506.523 358.52 505.16 358.52 503.479L358.52 495.566C358.52 493.885 359.987 492.523 361.797 492.523Z" stroke="#333333" stroke-miterlimit="8" fill="none" fill-rule="evenodd"/><path d="M393.607 492.523 403.438 492.523C405.142 492.523 406.522 493.885 406.522 495.566L406.522 503.479C406.522 505.16 405.142 506.523 403.438 506.523L393.607 506.523C391.903 506.523 390.522 505.16 390.522 503.479L390.522 495.566C390.522 493.885 391.903 492.523 393.607 492.523Z" stroke="#000000" stroke-width="0" stroke-miterlimit="8" fill="#EEEEEE" fill-rule="evenodd"/><text font-family="Segoe UI,Segoe UI_MSFontService,sans-serif" font-weight="400" font-size="7" transform="translate(393.797 502)">20</text><path d="M393.607 492.523 403.438 492.523C405.142 492.523 406.522 493.885 406.522 495.566L406.522 503.479C406.522 505.16 405.142 506.523 403.438 506.523L393.607 506.523C391.903 506.523 390.522 505.16 390.522 503.479L390.522 495.566C390.522 493.885 391.903 492.523 393.607 492.523Z" stroke="#333333" stroke-miterlimit="8" fill="none" fill-rule="evenodd"/><path d="M150 526 606 526 606 962 150 962Z" fill="#FFFFFF" fill-rule="evenodd"/><path d="M222.503 626.502 222.503 628.752C222.503 631.002 222.503 635.502 222.503 640.002 222.503 644.502 222.503 649.002 222.503 651.252L222.503 653.502" stroke="#000000" stroke-miterlimit="8" fill="none" fill-rule="evenodd"/><path d="M211.502 689.502 210.002 691.743C208.502 693.983 205.502 698.465 204.002 703.965 202.502 709.465 202.502 715.983 202.502 719.243L202.502 722.502" stroke="#000000" stroke-miterlimit="8" fill="none" fill-rule="evenodd"/><path d="M233.502 689.502 234.836 691.743C236.169 693.983 238.836 698.465 240.169 703.965 241.502 709.465 241.502 715.983 241.502 719.243L241.502 722.502" stroke="#000000" stroke-miterlimit="8" fill="none" fill-rule="evenodd"/><path d="M261.502 689.502 266.502 691.743C271.502 693.983 281.502 698.465 286.503 703.965 291.502 709.465 291.502 715.983 291.502 719.243L291.502 722.502" stroke="#000000" stroke-miterlimit="8" fill="none" fill-rule="evenodd"/><path d="M202.503 737.502 202.503 740.761C202.503 744.021 202.503 750.539 202.503 756.039 202.503 761.539 202.503 766.021 202.503 768.261L202.503 770.502" stroke="#000000" stroke-miterlimit="8" fill="none" fill-rule="evenodd"/><path d="M453.502 619.502 436.669 622.975C419.835 626.448 386.169 633.393 369.336 639.893 352.502 646.393 352.502 652.448 352.502 655.475L352.502 658.502" stroke="#000000" stroke-miterlimit="8" fill="none" fill-rule="evenodd"/><path d="M453.502 624.502 446.621 627.069C439.741 629.636 425.979 634.769 419.098 642.57 412.217 650.371 412.217 660.84 412.217 671.308 412.217 681.777 412.217 692.246 412.217 701.989 412.217 711.732 412.217 720.75 412.217 729.767 412.217 738.785 412.217 747.803 408.098 754.592 403.979 761.381 395.74 765.942 391.621 768.222L387.502 770.502" stroke="#000000" stroke-miterlimit="8" fill="none" fill-rule="evenodd"/><path d="M484.503 626.502 484.503 628.803C484.503 631.103 484.503 635.705 484.503 641.038 484.503 646.372 484.503 652.437 484.503 655.47L484.503 658.502" stroke="#000000" stroke-miterlimit="8" fill="none" fill-rule="evenodd"/><path d="M506.502 626.502 510.335 628.778C514.169 631.054 521.836 635.606 525.669 643.106 529.502 650.605 529.502 661.054 529.502 671.502 529.502 681.95 529.502 692.399 529.502 702.123 529.502 711.847 529.502 720.847 529.502 729.847 529.502 738.847 529.502 747.847 527.013 754.623 524.524 761.398 519.547 765.951 517.058 768.226L514.569 770.502" stroke="#000000" stroke-miterlimit="8" fill="none" fill-rule="evenodd"/><path d="M515.502 625.502 521.502 627.943C527.502 630.383 539.502 635.265 545.502 641.765 551.502 648.265 551.502 656.383 551.502 660.443L551.502 664.502" stroke="#000000" stroke-miterlimit="8" fill="none" fill-rule="evenodd"/><path d="M352.503 684.502 352.503 687.535C352.503 690.568 352.503 696.633 352.503 701.966 352.503 707.299 352.503 711.901 352.503 714.201L352.503 716.502" stroke="#000000" stroke-miterlimit="8" fill="none" fill-rule="evenodd"/><path d="M352.502 743.502 352.502 745.752C352.502 748.002 352.502 752.502 355.002 757.002 357.503 761.502 362.502 766.002 365.003 768.252L367.502 770.502" stroke="#000000" stroke-miterlimit="8" fill="none" fill-rule="evenodd"/><path d="M374.503 784.502 374.503 786.836C374.503 789.169 374.503 793.836 374.503 798.502 374.503 803.169 374.503 807.836 374.503 810.169L374.503 812.502" stroke="#000000" stroke-miterlimit="8" fill="none" fill-rule="evenodd"/><path d="M374.503 838.502 374.503 840.836C374.503 843.169 374.503 847.836 374.503 852.502 374.503 857.169 374.503 861.836 374.503 864.169L374.503 866.502" stroke="#000000" stroke-miterlimit="8" fill="none" fill-rule="evenodd"/><path d="M374.503 901.502 374.503 903.752C374.503 906.002 374.503 910.502 374.503 915.002 374.503 919.502 374.503 924.002 374.503 926.252L374.503 928.502" stroke="#000000" stroke-miterlimit="8" fill="none" fill-rule="evenodd"/><path d="M484.503 684.502 484.503 687.535C484.503 690.568 484.503 696.633 484.503 701.966 484.503 707.299 484.503 711.901 484.503 714.201L484.503 716.502" stroke="#000000" stroke-miterlimit="8" fill="none" fill-rule="evenodd"/><path d="M484.502 743.502 484.502 745.752C484.502 748.002 484.502 752.502 486.835 757.002 489.169 761.502 493.835 766.002 496.169 768.252L498.502 770.502" stroke="#000000" stroke-miterlimit="8" fill="none" fill-rule="evenodd"/><path d="M506.503 784.502 506.503 786.836C506.503 789.169 506.503 793.836 506.503 798.502 506.503 803.169 506.503 807.836 506.503 810.169L506.503 812.502" stroke="#000000" stroke-miterlimit="8" fill="none" fill-rule="evenodd"/><path d="M506.503 838.502 506.503 840.836C506.503 843.169 506.503 847.836 506.503 852.502 506.503 857.169 506.503 861.836 506.503 864.169L506.503 866.502" stroke="#000000" stroke-miterlimit="8" fill="none" fill-rule="evenodd"/><path d="M506.503 901.502 506.503 903.752C506.503 906.002 506.503 910.502 506.503 915.002 506.503 919.502 506.503 924.002 506.503 926.252L506.503 928.502" stroke="#000000" stroke-miterlimit="8" fill="none" fill-rule="evenodd"/><path d="M555.503 572.502 555.503 574.811C555.503 577.119 555.503 581.737 555.503 587.403 555.503 593.07 555.503 599.786 555.503 603.144L555.503 606.502" stroke="#000000" stroke-miterlimit="8" fill="none" fill-rule="evenodd"/><path d="M222.503 566.502 222.503 569.761C222.503 573.021 222.503 579.539 222.503 585.039 222.503 590.539 222.503 595.021 222.503 597.261L222.503 599.502" stroke="#000000" stroke-miterlimit="8" fill="none" fill-rule="evenodd"/><path d="M484.503 566.502 484.503 569.761C484.503 573.021 484.503 579.539 484.503 585.039 484.503 590.539 484.503 595.021 484.503 597.261L484.503 599.502" stroke="#000000" stroke-miterlimit="8" fill="none" fill-rule="evenodd"/><text font-family="Segoe UI,Segoe UI_MSFontService,sans-serif" font-weight="400" font-size="6" transform="translate(225.486 636)">32<tspan x="-19.4081" y="63">33</tspan><tspan x="19.4083" y="63">33</tspan><tspan x="69.3661" y="63">34</tspan><tspan x="-19.4081" y="117">40</tspan><tspan x="130.136" y="0">43</tspan><tspan x="189.961" y="63">43</tspan><tspan x="261.935" y="0">43</tspan><tspan x="306.889" y="63">43</tspan><tspan x="329.192" y="0">43</tspan><tspan x="130.136" y="63">45</tspan><tspan x="130.136" y="117">47</tspan><tspan x="152.613" y="158">48</tspan><tspan x="152.613" y="212">50</tspan><tspan x="152.613" y="275">51</tspan><tspan x="261.936" y="63">56</tspan><tspan x="261.936" y="117">58</tspan><tspan x="284.413" y="158">59</tspan><tspan x="284.412" y="212">61</tspan><tspan x="284.413" y="275">62</tspan><tspan x="333.372" y="-54">66</tspan><tspan x="0.000213623" y="-54">num_A_calls.10</tspan><tspan x="261.936" y="-54">num_B_calls.6</tspan></text><path d="M194.604 599.508 250.404 599.508C252.116 599.508 253.504 600.968 253.504 602.769L253.504 614.508 253.504 614.508 191.504 614.508 191.504 614.508 191.504 602.769C191.504 600.968 192.892 599.508 194.604 599.508Z" stroke="#000000" stroke-width="0" stroke-miterlimit="8" fill-rule="evenodd"/><text fill="#FFFFFF" font-family="Segoe UI,Segoe UI_MSFontService,sans-serif" font-weight="400" font-size="7" transform="translate(194.484 609)">Equal_12</text><path d="M191.504 614.509 253.504 614.509 253.504 614.509 253.504 623.509C253.504 625.166 252.116 626.509 250.404 626.509L194.604 626.509C192.892 626.509 191.504 625.166 191.504 623.509L191.504 614.509 191.504 614.509Z" stroke="#000000" stroke-width="0" stroke-miterlimit="8" fill="#FFFFFF" fill-rule="evenodd"/><text font-family="Segoe UI,Segoe UI_MSFontService,sans-serif" font-weight="400" font-size="6" transform="translate(194.484 621)">B = 0</text><path d="M191.504 614.515 253.504 614.515" stroke="#333333" stroke-miterlimit="8" fill="none" fill-rule="evenodd"/><path d="M194.604 599.508 250.404 599.508C252.116 599.508 253.504 600.914 253.504 602.647L253.504 623.368C253.504 625.102 252.116 626.508 250.404 626.508L194.604 626.508C192.892 626.508 191.504 625.102 191.504 623.368L191.504 602.647C191.504 600.914 192.892 599.508 194.604 599.508Z" stroke="#333333" stroke-miterlimit="8" fill="none" fill-rule="evenodd"/><path d="M173.598 653.514 271.406 653.514C273.116 653.514 274.502 654.974 274.502 656.775L274.502 668.514 274.502 668.514 170.502 668.514 170.502 668.514 170.502 656.775C170.502 654.974 171.888 653.514 173.598 653.514Z" stroke="#000000" stroke-width="0" stroke-miterlimit="8" fill-rule="evenodd"/><text fill="#FFFFFF" font-family="Segoe UI,Segoe UI_MSFontService,sans-serif" font-weight="400" font-size="7" transform="translate(173.412 663)">If_13</text><path d="M170.502 668.515 274.502 668.515 274.502 668.515 274.502 686.427C274.502 688.132 273.116 689.515 271.406 689.515L173.598 689.515C171.888 689.515 170.502 688.132 170.502 686.427L170.502 668.515 170.502 668.515Z" stroke="#000000" stroke-width="0" stroke-miterlimit="8" fill="#FFFFFF" fill-rule="evenodd"/><text font-family="Segoe UI,Segoe UI_MSFontService,sans-serif" font-weight="400" font-size="6" transform="translate(173.412 675)">else_branch = graph(torch<tspan x="65" y="0">-</tspan><tspan x="67.1667" y="0">jit</tspan>-<tspan x="73.8333" y="0">export3)</tspan><tspan x="0" y="9">then_branch = graph(torch</tspan><tspan x="66.5" y="9">-</tspan><tspan x="68.6667" y="9">jit</tspan>-<tspan x="75.3333" y="9">export2)</tspan></text><path d="M170.502 668.524 274.502 668.524" stroke="#333333" stroke-miterlimit="8" fill="none" fill-rule="evenodd"/><path d="M173.598 653.514 271.406 653.514C273.116 653.514 274.502 654.928 274.502 656.672L274.502 686.356C274.502 688.1 273.116 689.514 271.406 689.514L173.598 689.514C171.888 689.514 170.502 688.1 170.502 686.356L170.502 656.672C170.502 654.928 171.888 653.514 173.598 653.514Z" stroke="#333333" stroke-miterlimit="8" fill="none" fill-rule="evenodd"/><path d="M190.65 722.522 215.358 722.522C217.095 722.522 218.504 723.982 218.504 725.783L218.504 734.261C218.504 736.062 217.095 737.522 215.358 737.522L190.65 737.522C188.913 737.522 187.504 736.062 187.504 734.261L187.504 725.783C187.504 723.982 188.913 722.522 190.65 722.522Z" stroke="#000000" stroke-width="0" stroke-miterlimit="8" fill-rule="evenodd"/><text fill="#FFFFFF" font-family="Segoe UI,Segoe UI_MSFontService,sans-serif" font-weight="400" font-size="7" transform="translate(190.805 732)">Mul_19</text><path d="M190.65 722.522 215.358 722.522C217.095 722.522 218.504 723.982 218.504 725.783L218.504 734.261C218.504 736.062 217.095 737.522 215.358 737.522L190.65 737.522C188.913 737.522 187.504 736.062 187.504 734.261L187.504 725.783C187.504 723.982 188.913 722.522 190.65 722.522Z" stroke="#333333" stroke-miterlimit="8" fill="none" fill-rule="evenodd"/><path d="M189.608 770.525 215.4 770.525C217.114 770.525 218.504 771.888 218.504 773.569L218.504 781.482C218.504 783.163 217.114 784.525 215.4 784.525L189.608 784.525C187.894 784.525 186.504 783.163 186.504 781.482L186.504 773.569C186.504 771.888 187.894 770.525 189.608 770.525Z" stroke="#000000" stroke-width="0" stroke-miterlimit="8" fill-rule="evenodd"/><text fill="#FFFFFF" font-family="Segoe UI,Segoe UI_MSFontService,sans-serif" font-weight="400" font-size="7" transform="translate(190.097 779)">Add_20</text><path d="M189.608 770.525 215.4 770.525C217.114 770.525 218.504 771.888 218.504 773.569L218.504 781.482C218.504 783.163 217.114 784.525 215.4 784.525L189.608 784.525C187.894 784.525 186.504 783.163 186.504 781.482L186.504 773.569C186.504 771.888 187.894 770.525 189.608 770.525Z" stroke="#333333" stroke-miterlimit="8" fill="none" fill-rule="evenodd"/><path d="M456.632 599.508 512.432 599.508C514.144 599.508 515.532 600.968 515.532 602.769L515.532 614.508 515.532 614.508 453.532 614.508 453.532 614.508 453.532 602.769C453.532 600.968 454.92 599.508 456.632 599.508Z" stroke="#000000" stroke-width="0" stroke-miterlimit="8" fill-rule="evenodd"/><text fill="#FFFFFF" font-family="Segoe UI,Segoe UI_MSFontService,sans-serif" font-weight="400" font-size="7" transform="translate(456.42 609)">Add_22</text><path d="M453.532 614.509 515.532 614.509 515.532 614.509 515.532 623.509C515.532 625.166 514.144 626.509 512.432 626.509L456.632 626.509C454.92 626.509 453.532 625.166 453.532 623.509L453.532 614.509 453.532 614.509Z" stroke="#000000" stroke-width="0" stroke-miterlimit="8" fill="#FFFFFF" fill-rule="evenodd"/><text font-family="Segoe UI,Segoe UI_MSFontService,sans-serif" font-weight="400" font-size="6" transform="translate(456.42 621)">B = 1</text><path d="M453.532 614.515 515.532 614.515" stroke="#333333" stroke-miterlimit="8" fill="none" fill-rule="evenodd"/><path d="M456.632 599.508 512.432 599.508C514.144 599.508 515.532 600.914 515.532 602.647L515.532 623.368C515.532 625.102 514.144 626.508 512.432 626.508L456.632 626.508C454.92 626.508 453.532 625.102 453.532 623.368L453.532 602.647C453.532 600.914 454.92 599.508 456.632 599.508Z" stroke="#333333" stroke-miterlimit="8" fill="none" fill-rule="evenodd"/><path d="M324.618 658.514 380.418 658.514C382.13 658.514 383.518 659.876 383.518 661.557L383.518 672.514 383.518 672.514 321.518 672.514 321.518 672.514 321.518 661.557C321.518 659.876 322.906 658.514 324.618 658.514Z" stroke="#000000" stroke-width="0" stroke-miterlimit="8" fill-rule="evenodd"/><text fill="#FFFFFF" font-family="Segoe UI,Segoe UI_MSFontService,sans-serif" font-weight="400" font-size="7" transform="translate(324.619 667)">Div_24</text><path d="M321.518 672.515 383.518 672.515 383.518 672.515 383.518 681.515C383.518 683.172 382.13 684.515 380.418 684.515L324.618 684.515C322.906 684.515 321.518 683.172 321.518 681.515L321.518 672.515 321.518 672.515Z" stroke="#000000" stroke-width="0" stroke-miterlimit="8" fill="#FFFFFF" fill-rule="evenodd"/><text font-family="Segoe UI,Segoe UI_MSFontService,sans-serif" font-weight="400" font-size="6" transform="translate(324.619 680)">B = 5</text><path d="M321.518 672.525 383.518 672.525" stroke="#333333" stroke-miterlimit="8" fill="none" fill-rule="evenodd"/><path d="M324.618 658.514 380.418 658.514C382.13 658.514 383.518 659.867 383.518 661.537L383.518 681.49C383.518 683.16 382.13 684.514 380.418 684.514L324.618 684.514C322.906 684.514 321.518 683.16 321.518 681.49L321.518 661.537C321.518 659.867 322.906 658.514 324.618 658.514Z" stroke="#333333" stroke-miterlimit="8" fill="none" fill-rule="evenodd"/><path d="M324.618 716.52 380.418 716.52C382.13 716.52 383.518 717.882 383.518 719.563L383.518 730.52 383.518 730.52 321.518 730.52 321.518 730.52 321.518 719.563C321.518 717.882 322.906 716.52 324.618 716.52Z" stroke="#000000" stroke-width="0" stroke-miterlimit="8" fill-rule="evenodd"/><text fill="#FFFFFF" font-family="Segoe UI,Segoe UI_MSFontService,sans-serif" font-weight="400" font-size="7" transform="translate(324.619 726)">Mul_26</text><path d="M321.518 730.523 383.518 730.523 383.518 730.523 383.518 740.273C383.518 742.067 382.13 743.523 380.418 743.523L324.618 743.523C322.906 743.523 321.518 742.067 321.518 740.273L321.518 730.523 321.518 730.523Z" stroke="#000000" stroke-width="0" stroke-miterlimit="8" fill="#FFFFFF" fill-rule="evenodd"/><text font-family="Segoe UI,Segoe UI_MSFontService,sans-serif" font-weight="400" font-size="6" transform="translate(324.619 738)">B = 5</text><path d="M321.518 730.535 383.518 730.535" stroke="#333333" stroke-miterlimit="8" fill="none" fill-rule="evenodd"/><path d="M324.618 716.52 380.418 716.52C382.13 716.52 383.518 717.926 383.518 719.66L383.518 740.381C383.518 742.115 382.13 743.52 380.418 743.52L324.618 743.52C322.906 743.52 321.518 742.115 321.518 740.381L321.518 719.66C321.518 717.926 322.906 716.52 324.618 716.52Z" stroke="#333333" stroke-miterlimit="8" fill="none" fill-rule="evenodd"/><path d="M362.684 770.525 387.361 770.525C389.107 770.525 390.522 771.888 390.522 773.569L390.522 781.482C390.522 783.163 389.107 784.525 387.361 784.525L362.684 784.525C360.938 784.525 359.522 783.163 359.522 781.482L359.522 773.569C359.522 771.888 360.938 770.525 362.684 770.525Z" stroke="#000000" stroke-width="0" stroke-miterlimit="8" fill-rule="evenodd"/><text fill="#FFFFFF" font-family="Segoe UI,Segoe UI_MSFontService,sans-serif" font-weight="400" font-size="7" transform="translate(362.898 779)">Sub_27</text><path d="M362.684 770.525 387.361 770.525C389.107 770.525 390.522 771.888 390.522 773.569L390.522 781.482C390.522 783.163 389.107 784.525 387.361 784.525L362.684 784.525C360.938 784.525 359.522 783.163 359.522 781.482L359.522 773.569C359.522 771.888 360.938 770.525 362.684 770.525Z" stroke="#333333" stroke-miterlimit="8" fill="none" fill-rule="evenodd"/><path d="M346.62 812.53 402.42 812.53C404.132 812.53 405.52 813.892 405.52 815.573L405.52 826.53 405.52 826.53 343.52 826.53 343.52 826.53 343.52 815.573C343.52 813.892 344.908 812.53 346.62 812.53Z" stroke="#000000" stroke-width="0" stroke-miterlimit="8" fill-rule="evenodd"/><text fill="#FFFFFF" font-family="Segoe UI,Segoe UI_MSFontService,sans-serif" font-weight="400" font-size="7" transform="translate(347.096 821)">Equal_29</text><path d="M343.52 826.531 405.52 826.531 405.52 826.531 405.52 835.531C405.52 837.187 404.132 838.531 402.42 838.531L346.62 838.531C344.908 838.531 343.52 837.187 343.52 835.531L343.52 826.531 343.52 826.531Z" stroke="#000000" stroke-width="0" stroke-miterlimit="8" fill="#FFFFFF" fill-rule="evenodd"/><text font-family="Segoe UI,Segoe UI_MSFontService,sans-serif" font-weight="400" font-size="6" transform="translate(347.096 833)">B = 0</text><path d="M343.52 826.551 405.52 826.551" stroke="#333333" stroke-miterlimit="8" fill="none" fill-rule="evenodd"/><path d="M346.62 812.529 402.42 812.529C404.132 812.529 405.52 813.883 405.52 815.553L405.52 835.506C405.52 837.176 404.132 838.529 402.42 838.529L346.62 838.529C344.908 838.529 343.52 837.176 343.52 835.506L343.52 815.553C343.52 813.883 344.908 812.529 346.62 812.529Z" stroke="#333333" stroke-miterlimit="8" fill="none" fill-rule="evenodd"/><path d="M325.614 866.535 423.422 866.535C425.132 866.535 426.518 867.898 426.518 869.579L426.518 880.535 426.518 880.535 322.518 880.535 322.518 880.535 322.518 869.579C322.518 867.898 323.904 866.535 325.614 866.535Z" stroke="#000000" stroke-width="0" stroke-miterlimit="8" fill-rule="evenodd"/><text fill="#FFFFFF" font-family="Segoe UI,Segoe UI_MSFontService,sans-serif" font-weight="400" font-size="7" transform="translate(326.024 875)">If_30</text><path d="M322.518 880.537 426.518 880.537 426.518 880.537 426.518 898.449C426.518 900.154 425.132 901.537 423.422 901.537L325.614 901.537C323.904 901.537 322.518 900.154 322.518 898.449L322.518 880.537 322.518 880.537Z" stroke="#000000" stroke-width="0" stroke-miterlimit="8" fill="#FFFFFF" fill-rule="evenodd"/><text font-family="Segoe UI,Segoe UI_MSFontService,sans-serif" font-weight="400" font-size="6" transform="translate(326.024 887)">else_branch = graph(torch<tspan x="65" y="0">-</tspan><tspan x="67.1667" y="0">jit</tspan>-<tspan x="73.8333" y="0">export5)</tspan><tspan x="0" y="9">then_branch = graph(torch</tspan><tspan x="66.5" y="9">-</tspan><tspan x="68.6667" y="9">jit</tspan>-<tspan x="75.3333" y="9">export4)</tspan></text><path d="M322.518 880.56 426.518 880.56" stroke="#333333" stroke-miterlimit="8" fill="none" fill-rule="evenodd"/><path d="M325.614 866.535 423.422 866.535C425.132 866.535 426.518 867.91 426.518 869.606L426.518 898.465C426.518 900.161 425.132 901.535 423.422 901.535L325.614 901.535C323.904 901.535 322.518 900.161 322.518 898.465L322.518 869.606C322.518 867.91 323.904 866.535 325.614 866.535Z" stroke="#333333" stroke-miterlimit="8" fill="none" fill-rule="evenodd"/><path d="M456.632 658.514 512.432 658.514C514.144 658.514 515.532 659.876 515.532 661.557L515.532 672.514 515.532 672.514 453.532 672.514 453.532 672.514 453.532 661.557C453.532 659.876 454.92 658.514 456.632 658.514Z" stroke="#000000" stroke-width="0" stroke-miterlimit="8" fill-rule="evenodd"/><text fill="#FFFFFF" font-family="Segoe UI,Segoe UI_MSFontService,sans-serif" font-weight="400" font-size="7" transform="translate(456.42 667)">Div_35</text><path d="M453.532 672.515 515.532 672.515 515.532 672.515 515.532 681.515C515.532 683.172 514.144 684.515 512.432 684.515L456.632 684.515C454.92 684.515 453.532 683.172 453.532 681.515L453.532 672.515 453.532 672.515Z" stroke="#000000" stroke-width="0" stroke-miterlimit="8" fill="#FFFFFF" fill-rule="evenodd"/><text font-family="Segoe UI,Segoe UI_MSFontService,sans-serif" font-weight="400" font-size="6" transform="translate(456.42 680)">B = 10</text><path d="M453.532 672.525 515.532 672.525" stroke="#333333" stroke-miterlimit="8" fill="none" fill-rule="evenodd"/><path d="M456.632 658.514 512.432 658.514C514.144 658.514 515.532 659.867 515.532 661.537L515.532 681.49C515.532 683.16 514.144 684.514 512.432 684.514L456.632 684.514C454.92 684.514 453.532 683.16 453.532 681.49L453.532 661.537C453.532 659.867 454.92 658.514 456.632 658.514Z" stroke="#333333" stroke-miterlimit="8" fill="none" fill-rule="evenodd"/><path d="M456.632 716.52 512.432 716.52C514.144 716.52 515.532 717.882 515.532 719.563L515.532 730.52 515.532 730.52 453.532 730.52 453.532 730.52 453.532 719.563C453.532 717.882 454.92 716.52 456.632 716.52Z" stroke="#000000" stroke-width="0" stroke-miterlimit="8" fill-rule="evenodd"/><text fill="#FFFFFF" font-family="Segoe UI,Segoe UI_MSFontService,sans-serif" font-weight="400" font-size="7" transform="translate(456.42 726)">Mul_37</text><path d="M453.532 730.523 515.532 730.523 515.532 730.523 515.532 740.273C515.532 742.067 514.144 743.523 512.432 743.523L456.632 743.523C454.92 743.523 453.532 742.067 453.532 740.273L453.532 730.523 453.532 730.523Z" stroke="#000000" stroke-width="0" stroke-miterlimit="8" fill="#FFFFFF" fill-rule="evenodd"/><text font-family="Segoe UI,Segoe UI_MSFontService,sans-serif" font-weight="400" font-size="6" transform="translate(456.42 738)">B = 10</text><path d="M453.532 730.535 515.532 730.535" stroke="#333333" stroke-miterlimit="8" fill="none" fill-rule="evenodd"/><path d="M456.632 716.52 512.432 716.52C514.144 716.52 515.532 717.926 515.532 719.66L515.532 740.381C515.532 742.115 514.144 743.52 512.432 743.52L456.632 743.52C454.92 743.52 453.532 742.115 453.532 740.381L453.532 719.66C453.532 717.926 454.92 716.52 456.632 716.52Z" stroke="#333333" stroke-miterlimit="8" fill="none" fill-rule="evenodd"/><path d="M494.595 770.525 518.476 770.525C520.166 770.525 521.535 771.888 521.535 773.569L521.535 781.482C521.535 783.163 520.166 784.525 518.476 784.525L494.595 784.525C492.905 784.525 491.535 783.163 491.535 781.482L491.535 773.569C491.535 771.888 492.905 770.525 494.595 770.525Z" stroke="#000000" stroke-width="0" stroke-miterlimit="8" fill-rule="evenodd"/><text fill="#FFFFFF" font-family="Segoe UI,Segoe UI_MSFontService,sans-serif" font-weight="400" font-size="7" transform="translate(494.698 779)">Sub_38</text><path d="M494.595 770.525 518.476 770.525C520.166 770.525 521.535 771.888 521.535 773.569L521.535 781.482C521.535 783.163 520.166 784.525 518.476 784.525L494.595 784.525C492.905 784.525 491.535 783.163 491.535 781.482L491.535 773.569C491.535 771.888 492.905 770.525 494.595 770.525Z" stroke="#333333" stroke-miterlimit="8" fill="none" fill-rule="evenodd"/><path d="M478.634 812.53 534.434 812.53C536.146 812.53 537.534 813.892 537.534 815.573L537.534 826.53 537.534 826.53 475.534 826.53 475.534 826.53 475.534 815.573C475.534 813.892 476.922 812.53 478.634 812.53Z" stroke="#000000" stroke-width="0" stroke-miterlimit="8" fill-rule="evenodd"/><text fill="#FFFFFF" font-family="Segoe UI,Segoe UI_MSFontService,sans-serif" font-weight="400" font-size="7" transform="translate(478.896 821)">Equal_40</text><path d="M475.534 826.531 537.534 826.531 537.534 826.531 537.534 835.531C537.534 837.187 536.146 838.531 534.434 838.531L478.634 838.531C476.922 838.531 475.534 837.187 475.534 835.531L475.534 826.531 475.534 826.531Z" stroke="#000000" stroke-width="0" stroke-miterlimit="8" fill="#FFFFFF" fill-rule="evenodd"/><text font-family="Segoe UI,Segoe UI_MSFontService,sans-serif" font-weight="400" font-size="6" transform="translate(478.896 833)">B = 0</text><path d="M475.534 826.551 537.534 826.551" stroke="#333333" stroke-miterlimit="8" fill="none" fill-rule="evenodd"/><path d="M478.634 812.529 534.434 812.529C536.146 812.529 537.534 813.883 537.534 815.553L537.534 835.506C537.534 837.176 536.146 838.529 534.434 838.529L478.634 838.529C476.922 838.529 475.534 837.176 475.534 835.506L475.534 815.553C475.534 813.883 476.922 812.529 478.634 812.529Z" stroke="#333333" stroke-miterlimit="8" fill="none" fill-rule="evenodd"/><path d="M457.628 866.535 555.436 866.535C557.146 866.535 558.532 867.898 558.532 869.579L558.532 880.535 558.532 880.535 454.532 880.535 454.532 880.535 454.532 869.579C454.532 867.898 455.918 866.535 457.628 866.535Z" stroke="#000000" stroke-width="0" stroke-miterlimit="8" fill-rule="evenodd"/><text fill="#FFFFFF" font-family="Segoe UI,Segoe UI_MSFontService,sans-serif" font-weight="400" font-size="7" transform="translate(457.824 875)">If_41</text><path d="M454.532 880.537 558.532 880.537 558.532 880.537 558.532 898.449C558.532 900.154 557.146 901.537 555.436 901.537L457.628 901.537C455.918 901.537 454.532 900.154 454.532 898.449L454.532 880.537 454.532 880.537Z" stroke="#000000" stroke-width="0" stroke-miterlimit="8" fill="#FFFFFF" fill-rule="evenodd"/><text font-family="Segoe UI,Segoe UI_MSFontService,sans-serif" font-weight="400" font-size="6" transform="translate(457.824 887)">else_branch = graph(torch<tspan x="65" y="0">-</tspan><tspan x="67.1667" y="0">jit</tspan>-<tspan x="73.8333" y="0">export7)</tspan><tspan x="0" y="9">then_branch = graph(torch</tspan><tspan x="66.5" y="9">-</tspan><tspan x="68.6667" y="9">jit</tspan>-<tspan x="75.3333" y="9">export6)</tspan></text><path d="M454.532 880.56 558.532 880.56" stroke="#333333" stroke-miterlimit="8" fill="none" fill-rule="evenodd"/><path d="M457.628 866.535 555.436 866.535C557.146 866.535 558.532 867.91 558.532 869.606L558.532 898.465C558.532 900.161 557.146 901.535 555.436 901.535L457.628 901.535C455.918 901.535 454.532 900.161 454.532 898.465L454.532 869.606C454.532 867.91 455.918 866.535 457.628 866.535Z" stroke="#333333" stroke-miterlimit="8" fill="none" fill-rule="evenodd"/><path d="M527.639 546.502 583.439 546.502C585.151 546.502 586.539 547.865 586.539 549.546L586.539 560.502 586.539 560.502 524.539 560.502 524.539 560.502 524.539 549.546C524.539 547.865 525.927 546.502 527.639 546.502Z" stroke="#000000" stroke-width="0" stroke-miterlimit="8" fill-rule="evenodd"/><text fill="#FFFFFF" font-family="Segoe UI,Segoe UI_MSFontService,sans-serif" font-weight="400" font-size="7" transform="translate(527.856 555)">Cast_45</text><path d="M524.539 560.504 586.539 560.504 586.539 560.504 586.539 569.504C586.539 571.16 585.151 572.504 583.439 572.504L527.639 572.504C525.927 572.504 524.539 571.16 524.539 569.504L524.539 560.504 524.539 560.504Z" stroke="#000000" stroke-width="0" stroke-miterlimit="8" fill="#FFFFFF" fill-rule="evenodd"/><text font-family="Segoe UI,Segoe UI_MSFontService,sans-serif" font-weight="400" font-size="6" transform="translate(527.856 567)">to = 9</text><path d="M524.539 560.506 586.539 560.506" stroke="#333333" stroke-miterlimit="8" fill="none" fill-rule="evenodd"/><path d="M527.639 546.502 583.439 546.502C585.151 546.502 586.539 547.856 586.539 549.525L586.539 569.479C586.539 571.148 585.151 572.502 583.439 572.502L527.639 572.502C525.927 572.502 524.539 571.148 524.539 569.479L524.539 549.525C524.539 547.856 525.927 546.502 527.639 546.502Z" stroke="#333333" stroke-miterlimit="8" fill="none" fill-rule="evenodd"/><path d="M267.748 552.503 272.277 552.503C274.064 552.503 275.513 553.865 275.513 555.546L275.513 563.459C275.513 565.14 274.064 566.503 272.277 566.503L267.748 566.503C265.961 566.503 264.513 565.14 264.513 563.459L264.513 555.546C264.513 553.865 265.961 552.503 267.748 552.503Z" stroke="#000000" stroke-width="0" stroke-miterlimit="8" fill="#EEEEEE" fill-rule="evenodd"/><text font-family="Segoe UI,Segoe UI_MSFontService,sans-serif" font-weight="400" font-size="7" transform="translate(268.004 561)">i</text><path d="M267.748 552.503 272.277 552.503C274.064 552.503 275.513 553.865 275.513 555.546L275.513 563.459C275.513 565.14 274.064 566.503 272.277 566.503L267.748 566.503C265.961 566.503 264.513 565.14 264.513 563.459L264.513 555.546C264.513 553.865 265.961 552.503 267.748 552.503Z" stroke="#333333" stroke-miterlimit="8" fill="none" fill-rule="evenodd"/><path d="M293.654 552.503 311.376 552.503C313.11 552.503 314.515 553.865 314.515 555.546L314.515 563.459C314.515 565.14 313.11 566.503 311.376 566.503L293.654 566.503C291.92 566.503 290.515 565.14 290.515 563.459L290.515 555.546C290.515 553.865 291.92 552.503 293.654 552.503Z" stroke="#000000" stroke-width="0" stroke-miterlimit="8" fill="#EEEEEE" fill-rule="evenodd"/><text font-family="Segoe UI,Segoe UI_MSFontService,sans-serif" font-weight="400" font-size="7" transform="translate(294.046 561)">cond</text><path d="M293.654 552.503 311.376 552.503C313.11 552.503 314.515 553.865 314.515 555.546L314.515 563.459C314.515 565.14 313.11 566.503 311.376 566.503L293.654 566.503C291.92 566.503 290.515 565.14 290.515 563.459L290.515 555.546C290.515 553.865 291.92 552.503 293.654 552.503Z" stroke="#333333" stroke-miterlimit="8" fill="none" fill-rule="evenodd"/><path d="M333.512 552.503 347.525 552.503C349.178 552.503 350.518 553.865 350.518 555.546L350.518 563.459C350.518 565.14 349.178 566.503 347.525 566.503L333.512 566.503C331.858 566.503 330.518 565.14 330.518 563.459L330.518 555.546C330.518 553.865 331.858 552.503 333.512 552.503Z" stroke="#000000" stroke-width="0" stroke-miterlimit="8" fill="#EEEEEE" fill-rule="evenodd"/><text font-family="Segoe UI,Segoe UI_MSFontService,sans-serif" font-weight="400" font-size="7" transform="translate(333.254 561)">c.10</text><path d="M333.512 552.503 347.525 552.503C349.178 552.503 350.518 553.865 350.518 555.546L350.518 563.459C350.518 565.14 349.178 566.503 347.525 566.503L333.512 566.503C331.858 566.503 330.518 565.14 330.518 563.459L330.518 555.546C330.518 553.865 331.858 552.503 333.512 552.503Z" stroke="#333333" stroke-miterlimit="8" fill="none" fill-rule="evenodd"/><path d="M369.54 552.503 384.505 552.503C386.171 552.503 387.522 553.865 387.522 555.546L387.522 563.459C387.522 565.14 386.171 566.503 384.505 566.503L369.54 566.503C367.873 566.503 366.522 565.14 366.522 563.459L366.522 555.546C366.522 553.865 367.873 552.503 369.54 552.503Z" stroke="#000000" stroke-width="0" stroke-miterlimit="8" fill="#EEEEEE" fill-rule="evenodd"/><text font-family="Segoe UI,Segoe UI_MSFontService,sans-serif" font-weight="400" font-size="7" transform="translate(369.469 561)">d.10</text><path d="M369.54 552.503 384.505 552.503C386.171 552.503 387.522 553.865 387.522 555.546L387.522 563.459C387.522 565.14 386.171 566.503 384.505 566.503L369.54 566.503C367.873 566.503 366.522 565.14 366.522 563.459L366.522 555.546C366.522 553.865 367.873 552.503 369.54 552.503Z" stroke="#333333" stroke-miterlimit="8" fill="none" fill-rule="evenodd"/><path d="M406.622 552.503 421.431 552.503C423.141 552.503 424.527 553.865 424.527 555.546L424.527 563.459C424.527 565.14 423.141 566.503 421.431 566.503L406.622 566.503C404.912 566.503 403.527 565.14 403.527 563.459L403.527 555.546C403.527 553.865 404.912 552.503 406.622 552.503Z" stroke="#000000" stroke-width="0" stroke-miterlimit="8" fill="#EEEEEE" fill-rule="evenodd"/><text font-family="Segoe UI,Segoe UI_MSFontService,sans-serif" font-weight="400" font-size="7" transform="translate(406.546 561)">a.10</text><path d="M406.622 552.503 421.431 552.503C423.141 552.503 424.527 553.865 424.527 555.546L424.527 563.459C424.527 565.14 423.141 566.503 421.431 566.503L406.622 566.503C404.912 566.503 403.527 565.14 403.527 563.459L403.527 555.546C403.527 553.865 404.912 552.503 406.622 552.503Z" stroke="#333333" stroke-miterlimit="8" fill="none" fill-rule="evenodd"/><path d="M198.603 552.503 246.406 552.503C248.118 552.503 249.505 553.865 249.505 555.546L249.505 563.459C249.505 565.14 248.118 566.503 246.406 566.503L198.603 566.503C196.892 566.503 195.505 565.14 195.505 563.459L195.505 555.546C195.505 553.865 196.892 552.503 198.603 552.503Z" stroke="#000000" stroke-width="0" stroke-miterlimit="8" fill="#EEEEEE" fill-rule="evenodd"/><text font-family="Segoe UI,Segoe UI_MSFontService,sans-serif" font-weight="400" font-size="7" transform="translate(198.47 561)">num_A_calls.10</text><path d="M198.603 552.503 246.406 552.503C248.118 552.503 249.505 553.865 249.505 555.546L249.505 563.459C249.505 565.14 248.118 566.503 246.406 566.503L198.603 566.503C196.892 566.503 195.505 565.14 195.505 563.459L195.505 555.546C195.505 553.865 196.892 552.503 198.603 552.503Z" stroke="#333333" stroke-miterlimit="8" fill="none" fill-rule="evenodd"/><path d="M462.641 552.503 506.424 552.503C508.141 552.503 509.533 553.865 509.533 555.546L509.533 563.459C509.533 565.14 508.141 566.503 506.424 566.503L462.641 566.503C460.924 566.503 459.533 565.14 459.533 563.459L459.533 555.546C459.533 553.865 460.924 552.503 462.641 552.503Z" stroke="#000000" stroke-width="0" stroke-miterlimit="8" fill="#EEEEEE" fill-rule="evenodd"/><text font-family="Segoe UI,Segoe UI_MSFontService,sans-serif" font-weight="400" font-size="7" transform="translate(462.489 561)">num_B_calls.6</text><path d="M462.641 552.503 506.424 552.503C508.141 552.503 509.533 553.865 509.533 555.546L509.533 563.459C509.533 565.14 508.141 566.503 506.424 566.503L462.641 566.503C460.924 566.503 459.533 565.14 459.533 563.459L459.533 555.546C459.533 553.865 460.924 552.503 462.641 552.503Z" stroke="#333333" stroke-miterlimit="8" fill="none" fill-rule="evenodd"/><path d="M550.626 606.508 560.457 606.508C562.161 606.508 563.542 607.871 563.542 609.552L563.542 617.465C563.542 619.146 562.161 620.508 560.457 620.508L550.626 620.508C548.922 620.508 547.542 619.146 547.542 617.465L547.542 609.552C547.542 607.871 548.922 606.508 550.626 606.508Z" stroke="#000000" stroke-width="0" stroke-miterlimit="8" fill="#EEEEEE" fill-rule="evenodd"/><text font-family="Segoe UI,Segoe UI_MSFontService,sans-serif" font-weight="400" font-size="7" transform="translate(550.818 615)">66</text><path d="M550.626 606.508 560.457 606.508C562.161 606.508 563.542 607.871 563.542 609.552L563.542 617.465C563.542 619.146 562.161 620.508 560.457 620.508L550.626 620.508C548.922 620.508 547.542 619.146 547.542 617.465L547.542 609.552C547.542 607.871 548.922 606.508 550.626 606.508Z" stroke="#333333" stroke-miterlimit="8" fill="none" fill-rule="evenodd"/><path d="M369.616 928.542 379.429 928.542C381.138 928.542 382.523 929.904 382.523 931.585L382.523 939.498C382.523 941.179 381.138 942.542 379.429 942.542L369.616 942.542C367.908 942.542 366.523 941.179 366.523 939.498L366.523 931.585C366.523 929.904 367.908 928.542 369.616 928.542Z" stroke="#000000" stroke-width="0" stroke-miterlimit="8" fill="#EEEEEE" fill-rule="evenodd"/><text font-family="Segoe UI,Segoe UI_MSFontService,sans-serif" font-weight="400" font-size="7" transform="translate(370.082 938)">51</text><path d="M369.616 928.542 379.429 928.542C381.138 928.542 382.523 929.904 382.523 931.585L382.523 939.498C382.523 941.179 381.138 942.542 379.429 942.542L369.616 942.542C367.908 942.542 366.523 941.179 366.523 939.498L366.523 931.585C366.523 929.904 367.908 928.542 369.616 928.542Z" stroke="#333333" stroke-miterlimit="8" fill="none" fill-rule="evenodd"/><path d="M501.621 928.542 511.452 928.542C513.156 928.542 514.536 929.904 514.536 931.585L514.536 939.498C514.536 941.179 513.156 942.542 511.452 942.542L501.621 942.542C499.917 942.542 498.536 941.179 498.536 939.498L498.536 931.585C498.536 929.904 499.917 928.542 501.621 928.542Z" stroke="#000000" stroke-width="0" stroke-miterlimit="8" fill="#EEEEEE" fill-rule="evenodd"/><text font-family="Segoe UI,Segoe UI_MSFontService,sans-serif" font-weight="400" font-size="7" transform="translate(501.858 938)">62</text><path d="M501.621 928.542 511.452 928.542C513.156 928.542 514.536 929.904 514.536 931.585L514.536 939.498C514.536 941.179 513.156 942.542 511.452 942.542L501.621 942.542C499.917 942.542 498.536 941.179 498.536 939.498L498.536 931.585C498.536 929.904 499.917 928.542 501.621 928.542Z" stroke="#333333" stroke-miterlimit="8" fill="none" fill-rule="evenodd"/><path d="M236.593 722.522 246.424 722.522C248.128 722.522 249.509 723.982 249.509 725.783L249.509 734.261C249.509 736.062 248.128 737.522 246.424 737.522L236.593 737.522C234.89 737.522 233.509 736.062 233.509 734.261L233.509 725.783C233.509 723.982 234.89 722.522 236.593 722.522Z" stroke="#000000" stroke-width="0" stroke-miterlimit="8" fill="#EEEEEE" fill-rule="evenodd"/><text font-family="Segoe UI,Segoe UI_MSFontService,sans-serif" font-weight="400" font-size="7" transform="translate(236.853 732)">33</text><path d="M236.593 722.522 246.424 722.522C248.128 722.522 249.509 723.982 249.509 725.783L249.509 734.261C249.509 736.062 248.128 737.522 246.424 737.522L236.593 737.522C234.89 737.522 233.509 736.062 233.509 734.261L233.509 725.783C233.509 723.982 234.89 722.522 236.593 722.522Z" stroke="#333333" stroke-miterlimit="8" fill="none" fill-rule="evenodd"/><path d="M286.598 722.522 296.43 722.522C298.133 722.522 299.514 723.982 299.514 725.783L299.514 734.261C299.514 736.062 298.133 737.522 296.43 737.522L286.598 737.522C284.895 737.522 283.514 736.062 283.514 734.261L283.514 725.783C283.514 723.982 284.895 722.522 286.598 722.522Z" stroke="#000000" stroke-width="0" stroke-miterlimit="8" fill="#EEEEEE" fill-rule="evenodd"/><text font-family="Segoe UI,Segoe UI_MSFontService,sans-serif" font-weight="400" font-size="7" transform="translate(286.811 732)">34</text><path d="M286.598 722.522 296.43 722.522C298.133 722.522 299.514 723.982 299.514 725.783L299.514 734.261C299.514 736.062 298.133 737.522 296.43 737.522L286.598 737.522C284.895 737.522 283.514 736.062 283.514 734.261L283.514 725.783C283.514 723.982 284.895 722.522 286.598 722.522Z" stroke="#333333" stroke-miterlimit="8" fill="none" fill-rule="evenodd"/><path d="M546.509 664.514 556.57 664.514C558.21 664.514 559.54 665.877 559.54 667.558L559.54 675.471C559.54 677.152 558.21 678.514 556.57 678.514L546.509 678.514C544.869 678.514 543.54 677.152 543.54 675.471L543.54 667.558C543.54 665.877 544.869 664.514 546.509 664.514Z" stroke="#000000" stroke-width="0" stroke-miterlimit="8" fill="#EEEEEE" fill-rule="evenodd"/><text font-family="Segoe UI,Segoe UI_MSFontService,sans-serif" font-weight="400" font-size="7" transform="translate(546.327 673)">43</text><path d="M546.509 664.514 556.57 664.514C558.21 664.514 559.54 665.877 559.54 667.558L559.54 675.471C559.54 677.152 558.21 678.514 556.57 678.514L546.509 678.514C544.869 678.514 543.54 677.152 543.54 675.471L543.54 667.558C543.54 665.877 544.869 664.514 546.509 664.514Z" stroke="#333333" stroke-miterlimit="8" fill="none" fill-rule="evenodd"/><rect x="150.5" y="528.5" width="474" height="437" stroke="#000000" stroke-width="1.33333" stroke-miterlimit="8" fill="none"/><path d="M0.00303939-0.333319 20.5686-0.145792 41.0124 0.416881 61.0814 1.35469 80.7123 2.66758 99.6558 4.23058 117.849 6.10621 135.044 8.16958 151.115 10.5457 165.936 13.0472 172.755 14.4236 179.26 15.7997 185.329 17.2387 191.025 18.6782 196.221 20.1809 200.981 21.6838 205.245 23.1887 209.014 24.7592 212.283 26.3941 214.998 27.9724 217.16 29.6256 218.768 31.2982 219.754 33.007 220.085 34.7278 219.894 38.0381 219.325 41.3296 217.307 47.6327 214.029 53.5598 209.87 58.8528 204.952 63.3296 199.455 66.7413 194.097 68.5334 193.886 67.9012 199.207 66.1214 199.137 66.1543 204.574 62.7793 204.526 62.816 209.401 58.3785 209.363 58.4191 213.488 53.1691 213.458 53.2136 216.708 47.3386 216.683 47.3984 218.683 41.1484 218.672 41.1932 219.234 37.9432 219.23 37.9808 219.417 34.7308 219.423 34.813 219.11 33.188 219.149 33.2916 218.211 31.6666 218.26 31.731 216.697 30.106 216.735 30.1398 214.61 28.5148 214.645 28.5382 211.957 26.9757 211.976 26.9856 208.726 25.3606 208.747 25.3702 204.997 23.8077 205.014 23.8143 200.764 22.3143 200.775 22.3179 196.025 20.8179 196.032 20.8202 190.845 19.3202 190.856 19.3232 185.168 17.8857 185.173 17.8868 179.111 16.4493 179.118 16.4511 172.618 15.0761 172.622 15.0767 165.809 13.7017 165.82 13.7037 151.007 11.2037 151.014 11.2047 134.951 8.82975 134.96 8.83096 117.773 6.76846 117.778 6.76908 99.5908 4.89408 99.5976 4.8947 80.6601 3.3322 80.6653 3.33259 61.0403 2.02009 61.0469 2.02047 40.9844 1.08297 40.9908 1.08321 20.5533 0.520707 20.5595 0.520819-0.00303939 0.333319ZM196.034 71.9057 187.437 69.4375 194.57 64.0409Z" transform="matrix(-1 1.22465e-16 1.22465e-16 1 337.908 458.5)"/></g></svg>