<svg xmlns="http://www.w3.org/2000/svg" id="export" class="canvas" preserveAspectRatio="xMidYMid meet" style="position: absolute; margin: 0px;" width="665" height="395"><rect id="background" fill="#fff" pointer-events="all" width="665" height="395"/><g id="origin" transform="translate(17.95, 17.95) scale(1)"><g id="clusters" class="clusters"/><g id="edge-paths" class="edge-paths"><defs><marker id="arrowhead-vee" viewBox="0 0 10 10" refX="9" refY="5" markerUnits="strokeWidth" markerWidth="8" markerHeight="6" orient="auto" style="fill: rgb(0, 0, 0);"><path d="M 0 0 L 10 5 L 0 10 L 4 5 z" style="stroke-width: 1;"/></marker><marker id="arrowhead-vee-select" viewBox="0 0 10 10" refX="9" refY="5" markerUnits="strokeWidth" markerWidth="8" markerHeight="6" orient="auto" style="fill: rgb(238, 0, 0);"><path d="M 0 0 L 10 5 L 0 10 L 4 5 z" style="stroke-width: 1;"/></marker></defs><path class="edge-path" d="M50,184L50,188.83333333333334C50,193.66666666666666,50,203.33333333333334,82.55859375,214.38442694792403C115.1171875,225.43552056251477,180.234375,237.87104112502956,212.79296875,244.08880140628693L245.3515625,250.3065616875443" id="edge-10" style="stroke: rgb(0, 0, 0); stroke-width: 1px; fill: none; marker-end: url(&quot;#arrowhead-vee&quot;);"/><path class="edge-path" d="M179.8125,90L179.8125,93.66666666666667C179.8125,97.33333333333333,179.8125,104.66666666666667,179.8125,113.16666666666667C179.8125,121.66666666666667,179.8125,131.33333333333334,179.8125,136.16666666666666L179.8125,141" id="edge-12" style="stroke: rgb(0, 0, 0); stroke-width: 1px; fill: none; marker-end: url(&quot;#arrowhead-vee&quot;);"/><path class="edge-path" d="M179.8125,184L179.8125,188.83333333333334C179.8125,193.66666666666666,179.8125,203.33333333333334,190.73567708333334,212.2641258511297C201.65885416666666,221.194918368926,223.50520833333334,229.38983673785205,234.42838541666666,233.48729592231507L245.3515625,237.5847551067781" id="edge-13" style="stroke: rgb(0, 0, 0); stroke-width: 1px; fill: none; marker-end: url(&quot;#arrowhead-vee&quot;);"/><path class="edge-path" d="M314.4375,90L314.4375,93.66666666666667C314.4375,97.33333333333333,314.4375,104.66666666666667,314.4375,113.16666666666667C314.4375,121.66666666666667,314.4375,131.33333333333334,314.4375,136.16666666666666L314.4375,141" id="edge-14" style="stroke: rgb(0, 0, 0); stroke-width: 1px; fill: none; marker-end: url(&quot;#arrowhead-vee&quot;);"/><path class="edge-path" d="M314.4375,184L314.4375,188.83333333333334C314.4375,193.66666666666666,314.4375,203.33333333333334,314.4375,211.83333333333334C314.4375,220.33333333333334,314.4375,227.66666666666666,314.4375,231.33333333333334L314.4375,235" id="edge-15" style="stroke: rgb(0, 0, 0); stroke-width: 1px; fill: none; marker-end: url(&quot;#arrowhead-vee&quot;);"/><path class="edge-path" d="M449.0625,90L449.0625,93.66666666666667C449.0625,97.33333333333333,449.0625,104.66666666666667,449.0625,113.16666666666667C449.0625,121.66666666666667,449.0625,131.33333333333334,449.0625,136.16666666666666L449.0625,141" id="edge-16" style="stroke: rgb(0, 0, 0); stroke-width: 1px; fill: none; marker-end: url(&quot;#arrowhead-vee&quot;);"/><path class="edge-path" d="M449.0625,184L449.0625,188.83333333333334C449.0625,193.66666666666666,449.0625,203.33333333333334,438.1393229166667,212.2641258511297C427.2161458333333,221.194918368926,405.3697916666667,229.38983673785205,394.4466145833333,233.48729592231507L383.5234375,237.5847551067781" id="edge-17" style="stroke: rgb(0, 0, 0); stroke-width: 1px; fill: none; marker-end: url(&quot;#arrowhead-vee&quot;);"/><path class="edge-path" d="M578.875,191L578.875,194.66666666666666C578.875,198.33333333333334,578.875,205.66666666666666,546.31640625,215.5510936145907C513.7578125,225.43552056251477,448.640625,237.87104112502956,416.08203125,244.08880140628693L383.5234375,250.3065616875443" id="edge-18" style="stroke: rgb(0, 0, 0); stroke-width: 1px; fill: none; marker-end: url(&quot;#arrowhead-vee&quot;);"/><path class="edge-path" d="M300.064047029703,292L298.2148308580858,295.6666666666667C296.36561468646863,299.3333333333333,292.66718234323434,306.6666666666667,290.8179661716172,314C288.96875,321.3333333333333,288.96875,328.6666666666667,288.96875,332.3333333333333L288.96875,336" id="edge-19" style="stroke: rgb(0, 0, 0); stroke-width: 1px; fill: none; marker-end: url(&quot;#arrowhead-vee&quot;);"/><path class="edge-path" d="M328.810952970297,292L330.6601691419142,295.6666666666667C332.50938531353137,299.3333333333333,336.20781765676566,306.6666666666667,338.0570338283828,314C339.90625,321.3333333333333,339.90625,328.6666666666667,339.90625,332.3333333333333L339.90625,336" id="edge-20" style="stroke: rgb(0, 0, 0); stroke-width: 1px; fill: none; marker-end: url(&quot;#arrowhead-vee&quot;);"/><path class="edge-path" d="M294.640625,16.426241875580317L275.5026041666667,21.18853489631693C256.3645833333333,25.950827917053545,218.08854166666666,35.47541395852677,198.95052083333334,43.90437364593006C179.8125,52.333333333333336,179.8125,59.666666666666664,179.8125,63.333333333333336L179.8125,67" id="edge-input" style="stroke: rgb(0, 0, 0); stroke-width: 1px; fill: none; marker-end: url(&quot;#arrowhead-vee&quot;);"/><path class="edge-path" d="M314.4375,23L314.4375,26.666666666666668C314.4375,30.333333333333332,314.4375,37.666666666666664,314.4375,45C314.4375,52.333333333333336,314.4375,59.666666666666664,314.4375,63.333333333333336L314.4375,67" id="edge-input" style="stroke: rgb(0, 0, 0); stroke-width: 1px; fill: none; marker-end: url(&quot;#arrowhead-vee&quot;);"/><path class="edge-path" d="M334.234375,16.426241875580317L353.3723958333333,21.18853489631693C372.5104166666667,25.950827917053545,410.7864583333333,35.47541395852677,429.9244791666667,43.90437364593006C449.0625,52.333333333333336,449.0625,59.666666666666664,449.0625,63.333333333333336L449.0625,67" id="edge-input" style="stroke: rgb(0, 0, 0); stroke-width: 1px; fill: none; marker-end: url(&quot;#arrowhead-vee&quot;);"/></g><g id="edge-labels" class="edge-labels"><g class="edge-label" transform="translate(60.6953125,213)" style="opacity: 1;"><g transform="translate(-5.6953125,-7)"><text style="font-family: -apple-system, BlinkMacSystemFont, &quot;Segoe WPC&quot;, &quot;Segoe UI&quot;, Ubuntu, &quot;Droid Sans&quot;, sans-serif, &quot;PingFang SC&quot;; font-size: 10px;"><tspan xml:space="preserve" dy="1em" x="1">10</tspan></text></g></g><g class="edge-label" transform="translate(190.5078125,112)" style="opacity: 1;"><g transform="translate(-5.6953125,-7)"><text style="font-family: -apple-system, BlinkMacSystemFont, &quot;Segoe WPC&quot;, &quot;Segoe UI&quot;, Ubuntu, &quot;Droid Sans&quot;, sans-serif, &quot;PingFang SC&quot;; font-size: 10px;"><tspan xml:space="preserve" dy="1em" x="1">12</tspan></text></g></g><g class="edge-label" transform="translate(190.203125,213)" style="opacity: 1;"><g transform="translate(-5.390625,-7)"><text style="font-family: -apple-system, BlinkMacSystemFont, &quot;Segoe WPC&quot;, &quot;Segoe UI&quot;, Ubuntu, &quot;Droid Sans&quot;, sans-serif, &quot;PingFang SC&quot;; font-size: 10px;"><tspan xml:space="preserve" dy="1em" x="1">13</tspan></text></g></g><g class="edge-label" transform="translate(325.1328125,112)" style="opacity: 1;"><g transform="translate(-5.6953125,-7)"><text style="font-family: -apple-system, BlinkMacSystemFont, &quot;Segoe WPC&quot;, &quot;Segoe UI&quot;, Ubuntu, &quot;Droid Sans&quot;, sans-serif, &quot;PingFang SC&quot;; font-size: 10px;"><tspan xml:space="preserve" dy="1em" x="1">14</tspan></text></g></g><g class="edge-label" transform="translate(325.1328125,213)" style="opacity: 1;"><g transform="translate(-5.6953125,-7)"><text style="font-family: -apple-system, BlinkMacSystemFont, &quot;Segoe WPC&quot;, &quot;Segoe UI&quot;, Ubuntu, &quot;Droid Sans&quot;, sans-serif, &quot;PingFang SC&quot;; font-size: 10px;"><tspan xml:space="preserve" dy="1em" x="1">15</tspan></text></g></g><g class="edge-label" transform="translate(459.7578125,112)" style="opacity: 1;"><g transform="translate(-5.6953125,-7)"><text style="font-family: -apple-system, BlinkMacSystemFont, &quot;Segoe WPC&quot;, &quot;Segoe UI&quot;, Ubuntu, &quot;Droid Sans&quot;, sans-serif, &quot;PingFang SC&quot;; font-size: 10px;"><tspan xml:space="preserve" dy="1em" x="1">16</tspan></text></g></g><g class="edge-label" transform="translate(459.7578125,213)" style="opacity: 1;"><g transform="translate(-5.6953125,-7)"><text style="font-family: -apple-system, BlinkMacSystemFont, &quot;Segoe WPC&quot;, &quot;Segoe UI&quot;, Ubuntu, &quot;Droid Sans&quot;, sans-serif, &quot;PingFang SC&quot;; font-size: 10px;"><tspan xml:space="preserve" dy="1em" x="1">17</tspan></text></g></g><g class="edge-label" transform="translate(589.5703125,213)" style="opacity: 1;"><g transform="translate(-5.6953125,-7)"><text style="font-family: -apple-system, BlinkMacSystemFont, &quot;Segoe WPC&quot;, &quot;Segoe UI&quot;, Ubuntu, &quot;Droid Sans&quot;, sans-serif, &quot;PingFang SC&quot;; font-size: 10px;"><tspan xml:space="preserve" dy="1em" x="1">18</tspan></text></g></g><g class="edge-label" transform="translate(299.6640625,314)" style="opacity: 1;"><g transform="translate(-5.6953125,-7)"><text style="font-family: -apple-system, BlinkMacSystemFont, &quot;Segoe WPC&quot;, &quot;Segoe UI&quot;, Ubuntu, &quot;Droid Sans&quot;, sans-serif, &quot;PingFang SC&quot;; font-size: 10px;"><tspan xml:space="preserve" dy="1em" x="1">19</tspan></text></g></g><g class="edge-label" transform="translate(350.6015625,314)" style="opacity: 1;"><g transform="translate(-5.6953125,-7)"><text style="font-family: -apple-system, BlinkMacSystemFont, &quot;Segoe WPC&quot;, &quot;Segoe UI&quot;, Ubuntu, &quot;Droid Sans&quot;, sans-serif, &quot;PingFang SC&quot;; font-size: 10px;"><tspan xml:space="preserve" dy="1em" x="1">20</tspan></text></g></g><g class="edge-label" transform="translate(196.625,45)" style="opacity: 1;"><g transform="translate(-11.8125,-7)"><text style="font-family: -apple-system, BlinkMacSystemFont, &quot;Segoe WPC&quot;, &quot;Segoe UI&quot;, Ubuntu, &quot;Droid Sans&quot;, sans-serif, &quot;PingFang SC&quot;; font-size: 10px;"><tspan xml:space="preserve" dy="1em" x="1">input</tspan></text></g></g><g class="edge-label" transform="translate(331.25,45)" style="opacity: 1;"><g transform="translate(-11.8125,-7)"><text style="font-family: -apple-system, BlinkMacSystemFont, &quot;Segoe WPC&quot;, &quot;Segoe UI&quot;, Ubuntu, &quot;Droid Sans&quot;, sans-serif, &quot;PingFang SC&quot;; font-size: 10px;"><tspan xml:space="preserve" dy="1em" x="1">input</tspan></text></g></g><g class="edge-label" transform="translate(465.875,45)" style="opacity: 1;"><g transform="translate(-11.8125,-7)"><text style="font-family: -apple-system, BlinkMacSystemFont, &quot;Segoe WPC&quot;, &quot;Segoe UI&quot;, Ubuntu, &quot;Droid Sans&quot;, sans-serif, &quot;PingFang SC&quot;; font-size: 10px;"><tspan xml:space="preserve" dy="1em" x="1">input</tspan></text></g></g></g><g id="nodes" class="nodes"><g id="node-Constant_1" class="node graph-node" transform="translate(50,162.5)" style="opacity: 1;"><g transform="translate(-50,-21.5)"><g><g class="node-item node-item-type node-item-type-constant" transform="translate(0,0)"><path d="M5,0h90a5,5 0 0 1 5,5v18a0,0 0 0 1 0,0h-100a0,0 0 0 1 0,0v-18a5,5 0 0 1 5,-5z" style="stroke: rgb(0, 0, 0); fill: rgb(238, 238, 238); stroke-width: 0;"/><text x="6" y="16" style="font-family: -apple-system, BlinkMacSystemFont, &quot;Segoe WPC&quot;, &quot;Segoe UI&quot;, Ubuntu, &quot;Droid Sans&quot;, sans-serif, &quot;PingFang SC&quot;; font-size: 11px; text-rendering: geometricprecision; fill: rgb(0, 0, 0);">Constant_1</text><title>Constant</title></g><g class="node-attribute" transform="translate(0,23)"><path d="M0,0h100a0,0 0 0 1 0,0v15a5,5 0 0 1 -5,5h-90a5,5 0 0 1 -5,-5v-15a0,0 0 0 1 0,0z" style="stroke: rgb(0, 0, 0); fill: rgb(255, 255, 255); stroke-width: 0;"/><text xml:space="preserve" x="6" y="14" style="font-family: -apple-system, BlinkMacSystemFont, &quot;Segoe WPC&quot;, &quot;Segoe UI&quot;, Ubuntu, &quot;Droid Sans&quot;, sans-serif, &quot;PingFang SC&quot;; font-size: 9px; font-weight: normal; text-rendering: geometricprecision;"><title>tensor</title><tspan>value</tspan><tspan> = 0</tspan></text><line class="node" x1="0" x2="100" y1="0" y2="0" style="stroke: rgb(51, 51, 51); fill: none; stroke-width: 1px;"/></g><path class="node border" d="M5,0h90a5,5 0 0 1 5,5v33a5,5 0 0 1 -5,5h-90a5,5 0 0 1 -5,-5v-33a5,5 0 0 1 5,-5z" style="stroke: rgb(51, 51, 51); fill: none; stroke-width: 1px;"/></g></g></g><g id="node-Shape_3" class="node graph-node" transform="translate(179.8125,78.5)" style="opacity: 1;"><g transform="translate(-27.2265625,-11.5)"><g><g class="node-item node-item-type" transform="translate(0,0)"><path d="M5,0h44.453125a5,5 0 0 1 5,5v13a5,5 0 0 1 -5,5h-44.453125a5,5 0 0 1 -5,-5v-13a5,5 0 0 1 5,-5z" style="stroke: rgb(0, 0, 0); fill: rgb(0, 0, 0); stroke-width: 0;"/><text x="6" y="16" style="font-family: -apple-system, BlinkMacSystemFont, &quot;Segoe WPC&quot;, &quot;Segoe UI&quot;, Ubuntu, &quot;Droid Sans&quot;, sans-serif, &quot;PingFang SC&quot;; font-size: 11px; text-rendering: geometricprecision; fill: rgb(255, 255, 255);">Shape_3</text><title>Shape</title></g><path class="node border" d="M5,0h44.453125a5,5 0 0 1 5,5v13a5,5 0 0 1 -5,5h-44.453125a5,5 0 0 1 -5,-5v-13a5,5 0 0 1 5,-5z" style="stroke: rgb(51, 51, 51); fill: none; stroke-width: 1px;"/></g></g></g><g id="node-ConstantOfShape_4" class="node graph-node" transform="translate(179.8125,162.5)" style="opacity: 1;"><g transform="translate(-54.8125,-21.5)"><g><g class="node-item node-item-type" transform="translate(0,0)"><path d="M5,0h99.625a5,5 0 0 1 5,5v18a0,0 0 0 1 0,0h-109.625a0,0 0 0 1 0,0v-18a5,5 0 0 1 5,-5z" style="stroke: rgb(0, 0, 0); fill: rgb(0, 0, 0); stroke-width: 0;"/><text x="6" y="16" style="font-family: -apple-system, BlinkMacSystemFont, &quot;Segoe WPC&quot;, &quot;Segoe UI&quot;, Ubuntu, &quot;Droid Sans&quot;, sans-serif, &quot;PingFang SC&quot;; font-size: 11px; text-rendering: geometricprecision; fill: rgb(255, 255, 255);">ConstantOfShape_4</text><title>ConstantOfShape</title></g><g class="node-attribute" transform="translate(0,23)"><path d="M0,0h109.625a0,0 0 0 1 0,0v15a5,5 0 0 1 -5,5h-99.625a5,5 0 0 1 -5,-5v-15a0,0 0 0 1 0,0z" style="stroke: rgb(0, 0, 0); fill: rgb(255, 255, 255); stroke-width: 0;"/><text xml:space="preserve" x="6" y="14" style="font-family: -apple-system, BlinkMacSystemFont, &quot;Segoe WPC&quot;, &quot;Segoe UI&quot;, Ubuntu, &quot;Droid Sans&quot;, sans-serif, &quot;PingFang SC&quot;; font-size: 9px; font-weight: normal; text-rendering: geometricprecision;"><title>tensor</title><tspan>value</tspan><tspan> = [...]</tspan></text><line class="node" x1="0" x2="109.625" y1="0" y2="0" style="stroke: rgb(51, 51, 51); fill: none; stroke-width: 1px;"/></g><path class="node border" d="M5,0h99.625a5,5 0 0 1 5,5v33a5,5 0 0 1 -5,5h-99.625a5,5 0 0 1 -5,-5v-33a5,5 0 0 1 5,-5z" style="stroke: rgb(51, 51, 51); fill: none; stroke-width: 1px;"/></g></g></g><g id="node-Shape_5" class="node graph-node" transform="translate(314.4375,78.5)" style="opacity: 1;"><g transform="translate(-27.2265625,-11.5)"><g><g class="node-item node-item-type" transform="translate(0,0)"><path d="M5,0h44.453125a5,5 0 0 1 5,5v13a5,5 0 0 1 -5,5h-44.453125a5,5 0 0 1 -5,-5v-13a5,5 0 0 1 5,-5z" style="stroke: rgb(0, 0, 0); fill: rgb(0, 0, 0); stroke-width: 0;"/><text x="6" y="16" style="font-family: -apple-system, BlinkMacSystemFont, &quot;Segoe WPC&quot;, &quot;Segoe UI&quot;, Ubuntu, &quot;Droid Sans&quot;, sans-serif, &quot;PingFang SC&quot;; font-size: 11px; text-rendering: geometricprecision; fill: rgb(255, 255, 255);">Shape_5</text><title>Shape</title></g><path class="node border" d="M5,0h44.453125a5,5 0 0 1 5,5v13a5,5 0 0 1 -5,5h-44.453125a5,5 0 0 1 -5,-5v-13a5,5 0 0 1 5,-5z" style="stroke: rgb(51, 51, 51); fill: none; stroke-width: 1px;"/></g></g></g><g id="node-ConstantOfShape_6" class="node graph-node" transform="translate(314.4375,162.5)" style="opacity: 1;"><g transform="translate(-54.8125,-21.5)"><g><g class="node-item node-item-type" transform="translate(0,0)"><path d="M5,0h99.625a5,5 0 0 1 5,5v18a0,0 0 0 1 0,0h-109.625a0,0 0 0 1 0,0v-18a5,5 0 0 1 5,-5z" style="stroke: rgb(0, 0, 0); fill: rgb(0, 0, 0); stroke-width: 0;"/><text x="6" y="16" style="font-family: -apple-system, BlinkMacSystemFont, &quot;Segoe WPC&quot;, &quot;Segoe UI&quot;, Ubuntu, &quot;Droid Sans&quot;, sans-serif, &quot;PingFang SC&quot;; font-size: 11px; text-rendering: geometricprecision; fill: rgb(255, 255, 255);">ConstantOfShape_6</text><title>ConstantOfShape</title></g><g class="node-attribute" transform="translate(0,23)"><path d="M0,0h109.625a0,0 0 0 1 0,0v15a5,5 0 0 1 -5,5h-99.625a5,5 0 0 1 -5,-5v-15a0,0 0 0 1 0,0z" style="stroke: rgb(0, 0, 0); fill: rgb(255, 255, 255); stroke-width: 0;"/><text xml:space="preserve" x="6" y="14" style="font-family: -apple-system, BlinkMacSystemFont, &quot;Segoe WPC&quot;, &quot;Segoe UI&quot;, Ubuntu, &quot;Droid Sans&quot;, sans-serif, &quot;PingFang SC&quot;; font-size: 9px; font-weight: normal; text-rendering: geometricprecision;"><title>tensor</title><tspan>value</tspan><tspan> = [...]</tspan></text><line class="node" x1="0" x2="109.625" y1="0" y2="0" style="stroke: rgb(51, 51, 51); fill: none; stroke-width: 1px;"/></g><path class="node border" d="M5,0h99.625a5,5 0 0 1 5,5v33a5,5 0 0 1 -5,5h-99.625a5,5 0 0 1 -5,-5v-33a5,5 0 0 1 5,-5z" style="stroke: rgb(51, 51, 51); fill: none; stroke-width: 1px;"/></g></g></g><g id="node-Shape_7" class="node graph-node" transform="translate(449.0625,78.5)" style="opacity: 1;"><g transform="translate(-27.2265625,-11.5)"><g><g class="node-item node-item-type" transform="translate(0,0)"><path d="M5,0h44.453125a5,5 0 0 1 5,5v13a5,5 0 0 1 -5,5h-44.453125a5,5 0 0 1 -5,-5v-13a5,5 0 0 1 5,-5z" style="stroke: rgb(0, 0, 0); fill: rgb(0, 0, 0); stroke-width: 0;"/><text x="6" y="16" style="font-family: -apple-system, BlinkMacSystemFont, &quot;Segoe WPC&quot;, &quot;Segoe UI&quot;, Ubuntu, &quot;Droid Sans&quot;, sans-serif, &quot;PingFang SC&quot;; font-size: 11px; text-rendering: geometricprecision; fill: rgb(255, 255, 255);">Shape_7</text><title>Shape</title></g><path class="node border" d="M5,0h44.453125a5,5 0 0 1 5,5v13a5,5 0 0 1 -5,5h-44.453125a5,5 0 0 1 -5,-5v-13a5,5 0 0 1 5,-5z" style="stroke: rgb(51, 51, 51); fill: none; stroke-width: 1px;"/></g></g></g><g id="node-ConstantOfShape_8" class="node graph-node" transform="translate(449.0625,162.5)" style="opacity: 1;"><g transform="translate(-54.8125,-21.5)"><g><g class="node-item node-item-type" transform="translate(0,0)"><path d="M5,0h99.625a5,5 0 0 1 5,5v18a0,0 0 0 1 0,0h-109.625a0,0 0 0 1 0,0v-18a5,5 0 0 1 5,-5z" style="stroke: rgb(0, 0, 0); fill: rgb(0, 0, 0); stroke-width: 0;"/><text x="6" y="16" style="font-family: -apple-system, BlinkMacSystemFont, &quot;Segoe WPC&quot;, &quot;Segoe UI&quot;, Ubuntu, &quot;Droid Sans&quot;, sans-serif, &quot;PingFang SC&quot;; font-size: 11px; text-rendering: geometricprecision; fill: rgb(255, 255, 255);">ConstantOfShape_8</text><title>ConstantOfShape</title></g><g class="node-attribute" transform="translate(0,23)"><path d="M0,0h109.625a0,0 0 0 1 0,0v15a5,5 0 0 1 -5,5h-99.625a5,5 0 0 1 -5,-5v-15a0,0 0 0 1 0,0z" style="stroke: rgb(0, 0, 0); fill: rgb(255, 255, 255); stroke-width: 0;"/><text xml:space="preserve" x="6" y="14" style="font-family: -apple-system, BlinkMacSystemFont, &quot;Segoe WPC&quot;, &quot;Segoe UI&quot;, Ubuntu, &quot;Droid Sans&quot;, sans-serif, &quot;PingFang SC&quot;; font-size: 9px; font-weight: normal; text-rendering: geometricprecision;"><title>tensor</title><tspan>value</tspan><tspan> = [...]</tspan></text><line class="node" x1="0" x2="109.625" y1="0" y2="0" style="stroke: rgb(51, 51, 51); fill: none; stroke-width: 1px;"/></g><path class="node border" d="M5,0h99.625a5,5 0 0 1 5,5v33a5,5 0 0 1 -5,5h-99.625a5,5 0 0 1 -5,-5v-33a5,5 0 0 1 5,-5z" style="stroke: rgb(51, 51, 51); fill: none; stroke-width: 1px;"/></g></g></g><g id="node-Cast_9" class="node graph-node" transform="translate(578.875,162.5)" style="opacity: 1;"><g transform="translate(-50,-28.5)"><g><g class="node-item node-item-type" transform="translate(0,0)"><path d="M5,0h90a5,5 0 0 1 5,5v18a0,0 0 0 1 0,0h-100a0,0 0 0 1 0,0v-18a5,5 0 0 1 5,-5z" style="stroke: rgb(0, 0, 0); fill: rgb(0, 0, 0); stroke-width: 0;"/><text x="6" y="16" style="font-family: -apple-system, BlinkMacSystemFont, &quot;Segoe WPC&quot;, &quot;Segoe UI&quot;, Ubuntu, &quot;Droid Sans&quot;, sans-serif, &quot;PingFang SC&quot;; font-size: 11px; text-rendering: geometricprecision; fill: rgb(255, 255, 255);">Cast_9</text><title>Cast</title></g><g class="node-attribute" transform="translate(0,23)"><path d="M0,0h100a0,0 0 0 1 0,0v29a5,5 0 0 1 -5,5h-90a5,5 0 0 1 -5,-5v-29a0,0 0 0 1 0,0z" style="stroke: rgb(0, 0, 0); fill: rgb(255, 255, 255); stroke-width: 0;"/><text id="initializer-9" xml:space="preserve" x="6" y="14" style="font-family: -apple-system, BlinkMacSystemFont, &quot;Segoe WPC&quot;, &quot;Segoe UI&quot;, Ubuntu, &quot;Droid Sans&quot;, sans-serif, &quot;PingFang SC&quot;; font-size: 9px; font-weight: normal; text-rendering: geometricprecision;"><title>int64</title><tspan>input</tspan><tspan> = 1</tspan></text><text xml:space="preserve" x="6" y="28" style="font-family: -apple-system, BlinkMacSystemFont, &quot;Segoe WPC&quot;, &quot;Segoe UI&quot;, Ubuntu, &quot;Droid Sans&quot;, sans-serif, &quot;PingFang SC&quot;; font-size: 9px; font-weight: normal; text-rendering: geometricprecision;"><title>int64</title><tspan>to</tspan><tspan> = 9</tspan></text><line class="node" x1="0" x2="100" y1="0" y2="0" style="stroke: rgb(51, 51, 51); fill: none; stroke-width: 1px;"/></g><path class="node border" d="M5,0h90a5,5 0 0 1 5,5v47a5,5 0 0 1 -5,5h-90a5,5 0 0 1 -5,-5v-47a5,5 0 0 1 5,-5z" style="stroke: rgb(51, 51, 51); fill: none; stroke-width: 1px;"/></g></g></g><g id="node-Loop_10" class="node graph-node" transform="translate(314.4375,263.5)" style="opacity: 1;"><g transform="translate(-69.0859375,-28.5)"><g><g class="node-item node-item-type" transform="translate(0,0)"><path d="M5,0h128.171875a5,5 0 0 1 5,5v18a0,0 0 0 1 0,0h-138.171875a0,0 0 0 1 0,0v-18a5,5 0 0 1 5,-5z" style="stroke: rgb(0, 0, 0); fill: rgb(0, 0, 0); stroke-width: 0;"/><text x="6" y="16" style="font-family: -apple-system, BlinkMacSystemFont, &quot;Segoe WPC&quot;, &quot;Segoe UI&quot;, Ubuntu, &quot;Droid Sans&quot;, sans-serif, &quot;PingFang SC&quot;; font-size: 11px; text-rendering: geometricprecision; fill: rgb(255, 255, 255);">Loop_10</text><title>Loop</title></g><g class="node-attribute" transform="translate(0,23)"><path d="M0,0h138.171875a0,0 0 0 1 0,0v29a5,5 0 0 1 -5,5h-128.171875a5,5 0 0 1 -5,-5v-29a0,0 0 0 1 0,0z" style="stroke: rgb(0, 0, 0); fill: rgb(255, 255, 255); stroke-width: 0;"/><text id="initializer-11" xml:space="preserve" x="6" y="14" style="font-family: -apple-system, BlinkMacSystemFont, &quot;Segoe WPC&quot;, &quot;Segoe UI&quot;, Ubuntu, &quot;Droid Sans&quot;, sans-serif, &quot;PingFang SC&quot;; font-size: 9px; font-weight: normal; text-rendering: geometricprecision;"><title>int64</title><tspan>M</tspan><tspan> = 10</tspan></text><text xml:space="preserve" x="6" y="28" style="font-family: -apple-system, BlinkMacSystemFont, &quot;Segoe WPC&quot;, &quot;Segoe UI&quot;, Ubuntu, &quot;Droid Sans&quot;, sans-serif, &quot;PingFang SC&quot;; font-size: 9px; font-weight: normal; text-rendering: geometricprecision;"><title>graph</title><tspan>body</tspan><tspan> = graph(torch-jit-export1)</tspan></text><line class="node" x1="0" x2="138.171875" y1="0" y2="0" style="stroke: rgb(51, 51, 51); fill: none; stroke-width: 1px;"/></g><path class="node border" d="M5,0h128.171875a5,5 0 0 1 5,5v47a5,5 0 0 1 -5,5h-128.171875a5,5 0 0 1 -5,-5v-47a5,5 0 0 1 5,-5z" style="stroke: rgb(51, 51, 51); fill: none; stroke-width: 1px;"/></g></g></g><g class="node graph-input" transform="translate(314.4375,11.5)" style="opacity: 1;"><g transform="translate(-19.796875,-11.5)"><g><g class="node-item graph-item-input" transform="translate(0,0)"><path d="M5,0h29.59375a5,5 0 0 1 5,5v13a5,5 0 0 1 -5,5h-29.59375a5,5 0 0 1 -5,-5v-13a5,5 0 0 1 5,-5z" style="stroke: rgb(0, 0, 0); fill: rgb(238, 238, 238); stroke-width: 0;"/><text x="6" y="16" style="font-family: -apple-system, BlinkMacSystemFont, &quot;Segoe WPC&quot;, &quot;Segoe UI&quot;, Ubuntu, &quot;Droid Sans&quot;, sans-serif, &quot;PingFang SC&quot;; font-size: 11px; text-rendering: geometricprecision;">input</text><title>float32[1,1]</title></g><path class="node border" d="M5,0h29.59375a5,5 0 0 1 5,5v13a5,5 0 0 1 -5,5h-29.59375a5,5 0 0 1 -5,-5v-13a5,5 0 0 1 5,-5z" style="stroke: rgb(51, 51, 51); fill: none; stroke-width: 1px;"/></g></g></g><g class="node" transform="translate(288.96875,347.5)" style="opacity: 1;"><g transform="translate(-12.96875,-11.5)"><g><g class="node-item graph-item-output" transform="translate(0,0)"><path d="M5,0h15.9375a5,5 0 0 1 5,5v13a5,5 0 0 1 -5,5h-15.9375a5,5 0 0 1 -5,-5v-13a5,5 0 0 1 5,-5z" style="stroke: rgb(0, 0, 0); fill: rgb(238, 238, 238); stroke-width: 0;"/><text x="6" y="16" style="font-family: -apple-system, BlinkMacSystemFont, &quot;Segoe WPC&quot;, &quot;Segoe UI&quot;, Ubuntu, &quot;Droid Sans&quot;, sans-serif, &quot;PingFang SC&quot;; font-size: 11px; text-rendering: geometricprecision;">19</text><title>float32[1,1]</title></g><path class="node border" d="M5,0h15.9375a5,5 0 0 1 5,5v13a5,5 0 0 1 -5,5h-15.9375a5,5 0 0 1 -5,-5v-13a5,5 0 0 1 5,-5z" style="stroke: rgb(51, 51, 51); fill: none; stroke-width: 1px;"/></g></g></g><g class="node" transform="translate(339.90625,347.5)" style="opacity: 1;"><g transform="translate(-12.96875,-11.5)"><g><g class="node-item graph-item-output" transform="translate(0,0)"><path d="M5,0h15.9375a5,5 0 0 1 5,5v13a5,5 0 0 1 -5,5h-15.9375a5,5 0 0 1 -5,-5v-13a5,5 0 0 1 5,-5z" style="stroke: rgb(0, 0, 0); fill: rgb(238, 238, 238); stroke-width: 0;"/><text x="6" y="16" style="font-family: -apple-system, BlinkMacSystemFont, &quot;Segoe WPC&quot;, &quot;Segoe UI&quot;, Ubuntu, &quot;Droid Sans&quot;, sans-serif, &quot;PingFang SC&quot;; font-size: 11px; text-rendering: geometricprecision;">20</text><title>float32[1,1]</title></g><path class="node border" d="M5,0h15.9375a5,5 0 0 1 5,5v13a5,5 0 0 1 -5,5h-15.9375a5,5 0 0 1 -5,-5v-13a5,5 0 0 1 5,-5z" style="stroke: rgb(51, 51, 51); fill: none; stroke-width: 1px;"/></g></g></g></g></g></svg>