<svg xmlns="http://www.w3.org/2000/svg" id="export" class="canvas" preserveAspectRatio="xMidYMid meet" style="position: absolute; margin: 0px;" width="193" height="195"><rect id="background" fill="#fff" pointer-events="all" width="193" height="195"/><g id="origin" transform="translate(8.770312500000001, 8.770312500000001) scale(1)"><g id="clusters" class="clusters"/><g id="edge-paths" class="edge-paths"><defs><marker id="arrowhead-vee" viewBox="0 0 10 10" refX="9" refY="5" markerUnits="strokeWidth" markerWidth="8" markerHeight="6" orient="auto" style="fill: rgb(0, 0, 0);"><path d="M 0 0 L 10 5 L 0 10 L 4 5 z" style="stroke-width: 1;"/></marker><marker id="arrowhead-vee-select" viewBox="0 0 10 10" refX="9" refY="5" markerUnits="strokeWidth" markerWidth="8" markerHeight="6" orient="auto" style="fill: rgb(238, 0, 0);"><path d="M 0 0 L 10 5 L 0 10 L 4 5 z" style="stroke-width: 1;"/></marker></defs><path class="edge-path" d="M25.7734375,33L25.7734375,38.333333333333336C25.7734375,43.666666666666664,25.7734375,54.333333333333336,25.7734375,63.333333333333336C25.7734375,72.33333333333333,25.7734375,79.66666666666667,25.7734375,83.33333333333333L25.7734375,87" id="edge-35" style="stroke: rgb(0, 0, 0); stroke-width: 1px; fill: none; marker-end: url(&quot;#arrowhead-vee&quot;);"/><path class="edge-path" d="M25.7734375,110L25.7734375,113.66666666666667C25.7734375,117.33333333333333,25.7734375,124.66666666666667,25.7734375,132C25.7734375,139.33333333333334,25.7734375,146.66666666666666,25.7734375,150.33333333333334L25.7734375,154" id="edge-36" style="stroke: rgb(0, 0, 0); stroke-width: 1px; fill: none; marker-end: url(&quot;#arrowhead-vee&quot;);"/><path class="edge-path" d="M125.40625,43L125.40625,46.666666666666664C125.40625,50.333333333333336,125.40625,57.666666666666664,125.40625,65C125.40625,72.33333333333333,125.40625,79.66666666666667,125.40625,83.33333333333333L125.40625,87" id="edge-38" style="stroke: rgb(0, 0, 0); stroke-width: 1px; fill: none; marker-end: url(&quot;#arrowhead-vee&quot;);"/></g><g id="edge-labels" class="edge-labels"><g class="edge-label" transform="translate(36.46875,65)" style="opacity: 1;"><g transform="translate(-5.6953125,-7)"><text style="font-family: -apple-system, BlinkMacSystemFont, &quot;Segoe WPC&quot;, &quot;Segoe UI&quot;, Ubuntu, &quot;Droid Sans&quot;, sans-serif, &quot;PingFang SC&quot;; font-size: 10px;"><tspan xml:space="preserve" dy="1em" x="1">35</tspan></text></g></g><g class="edge-label" transform="translate(36.46875,132)" style="opacity: 1;"><g transform="translate(-5.6953125,-7)"><text style="font-family: -apple-system, BlinkMacSystemFont, &quot;Segoe WPC&quot;, &quot;Segoe UI&quot;, Ubuntu, &quot;Droid Sans&quot;, sans-serif, &quot;PingFang SC&quot;; font-size: 10px;"><tspan xml:space="preserve" dy="1em" x="1">36</tspan></text></g></g><g class="edge-label" transform="translate(136.1015625,65)" style="opacity: 1;"><g transform="translate(-5.6953125,-7)"><text style="font-family: -apple-system, BlinkMacSystemFont, &quot;Segoe WPC&quot;, &quot;Segoe UI&quot;, Ubuntu, &quot;Droid Sans&quot;, sans-serif, &quot;PingFang SC&quot;; font-size: 10px;"><tspan xml:space="preserve" dy="1em" x="1">38</tspan></text></g></g></g><g id="nodes" class="nodes"><g id="node-Mul_14" class="node graph-node" transform="translate(25.7734375,21.5)" style="opacity: 1;"><g transform="translate(-24.6328125,-11.5)"><g><g class="node-item node-item-type" transform="translate(0,0)"><path d="M5,0h39.265625a5,5 0 0 1 5,5v13a5,5 0 0 1 -5,5h-39.265625a5,5 0 0 1 -5,-5v-13a5,5 0 0 1 5,-5z" style="stroke: rgb(0, 0, 0); fill: rgb(0, 0, 0); stroke-width: 0;"/><text x="6" y="16" style="font-family: -apple-system, BlinkMacSystemFont, &quot;Segoe WPC&quot;, &quot;Segoe UI&quot;, Ubuntu, &quot;Droid Sans&quot;, sans-serif, &quot;PingFang SC&quot;; font-size: 11px; text-rendering: geometricprecision; fill: rgb(255, 255, 255);">Mul_14</text><title>Mul</title></g><path class="node border" d="M5,0h39.265625a5,5 0 0 1 5,5v13a5,5 0 0 1 -5,5h-39.265625a5,5 0 0 1 -5,-5v-13a5,5 0 0 1 5,-5z" style="stroke: rgb(51, 51, 51); fill: none; stroke-width: 1px;"/></g></g></g><g id="node-Add_15" class="node graph-node" transform="translate(25.7734375,98.5)" style="opacity: 1;"><g transform="translate(-25.7734375,-11.5)"><g><g class="node-item node-item-type" transform="translate(0,0)"><path d="M5,0h41.546875a5,5 0 0 1 5,5v13a5,5 0 0 1 -5,5h-41.546875a5,5 0 0 1 -5,-5v-13a5,5 0 0 1 5,-5z" style="stroke: rgb(0, 0, 0); fill: rgb(0, 0, 0); stroke-width: 0;"/><text x="6" y="16" style="font-family: -apple-system, BlinkMacSystemFont, &quot;Segoe WPC&quot;, &quot;Segoe UI&quot;, Ubuntu, &quot;Droid Sans&quot;, sans-serif, &quot;PingFang SC&quot;; font-size: 11px; text-rendering: geometricprecision; fill: rgb(255, 255, 255);">Add_15</text><title>Add</title></g><path class="node border" d="M5,0h41.546875a5,5 0 0 1 5,5v13a5,5 0 0 1 -5,5h-41.546875a5,5 0 0 1 -5,-5v-13a5,5 0 0 1 5,-5z" style="stroke: rgb(51, 51, 51); fill: none; stroke-width: 1px;"/></g></g></g><g id="node-Add_17" class="node graph-node" transform="translate(125.40625,21.5)" style="opacity: 1;"><g transform="translate(-50,-21.5)"><g><g class="node-item node-item-type" transform="translate(0,0)"><path d="M5,0h90a5,5 0 0 1 5,5v18a0,0 0 0 1 0,0h-100a0,0 0 0 1 0,0v-18a5,5 0 0 1 5,-5z" style="stroke: rgb(0, 0, 0); fill: rgb(0, 0, 0); stroke-width: 0;"/><text x="6" y="16" style="font-family: -apple-system, BlinkMacSystemFont, &quot;Segoe WPC&quot;, &quot;Segoe UI&quot;, Ubuntu, &quot;Droid Sans&quot;, sans-serif, &quot;PingFang SC&quot;; font-size: 11px; text-rendering: geometricprecision; fill: rgb(255, 255, 255);">Add_17</text><title>Add</title></g><g class="node-attribute" transform="translate(0,23)"><path d="M0,0h100a0,0 0 0 1 0,0v15a5,5 0 0 1 -5,5h-90a5,5 0 0 1 -5,-5v-15a0,0 0 0 1 0,0z" style="stroke: rgb(0, 0, 0); fill: rgb(255, 255, 255); stroke-width: 0;"/><text id="initializer-37" xml:space="preserve" x="6" y="14" style="font-family: -apple-system, BlinkMacSystemFont, &quot;Segoe WPC&quot;, &quot;Segoe UI&quot;, Ubuntu, &quot;Droid Sans&quot;, sans-serif, &quot;PingFang SC&quot;; font-size: 9px; font-weight: normal; text-rendering: geometricprecision;"><title>int64</title><tspan>B</tspan><tspan> = 1</tspan></text><line class="node" x1="0" x2="100" y1="0" y2="0" style="stroke: rgb(51, 51, 51); fill: none; stroke-width: 1px;"/></g><path class="node border" d="M5,0h90a5,5 0 0 1 5,5v33a5,5 0 0 1 -5,5h-90a5,5 0 0 1 -5,-5v-33a5,5 0 0 1 5,-5z" style="stroke: rgb(51, 51, 51); fill: none; stroke-width: 1px;"/></g></g></g><g class="node" transform="translate(25.7734375,165.5)" style="opacity: 1;"><g transform="translate(-12.96875,-11.5)"><g><g class="node-item graph-item-output" transform="translate(0,0)"><path d="M5,0h15.9375a5,5 0 0 1 5,5v13a5,5 0 0 1 -5,5h-15.9375a5,5 0 0 1 -5,-5v-13a5,5 0 0 1 5,-5z" style="stroke: rgb(0, 0, 0); fill: rgb(238, 238, 238); stroke-width: 0;"/><text x="6" y="16" style="font-family: -apple-system, BlinkMacSystemFont, &quot;Segoe WPC&quot;, &quot;Segoe UI&quot;, Ubuntu, &quot;Droid Sans&quot;, sans-serif, &quot;PingFang SC&quot;; font-size: 11px; text-rendering: geometricprecision;">36</text></g><path class="node border" d="M5,0h15.9375a5,5 0 0 1 5,5v13a5,5 0 0 1 -5,5h-15.9375a5,5 0 0 1 -5,-5v-13a5,5 0 0 1 5,-5z" style="stroke: rgb(51, 51, 51); fill: none; stroke-width: 1px;"/></g></g></g><g class="node" transform="translate(125.40625,98.5)" style="opacity: 1;"><g transform="translate(-12.96875,-11.5)"><g><g class="node-item graph-item-output" transform="translate(0,0)"><path d="M5,0h15.9375a5,5 0 0 1 5,5v13a5,5 0 0 1 -5,5h-15.9375a5,5 0 0 1 -5,-5v-13a5,5 0 0 1 5,-5z" style="stroke: rgb(0, 0, 0); fill: rgb(238, 238, 238); stroke-width: 0;"/><text x="6" y="16" style="font-family: -apple-system, BlinkMacSystemFont, &quot;Segoe WPC&quot;, &quot;Segoe UI&quot;, Ubuntu, &quot;Droid Sans&quot;, sans-serif, &quot;PingFang SC&quot;; font-size: 11px; text-rendering: geometricprecision;">38</text><title>int64</title></g><path class="node border" d="M5,0h15.9375a5,5 0 0 1 5,5v13a5,5 0 0 1 -5,5h-15.9375a5,5 0 0 1 -5,-5v-13a5,5 0 0 1 5,-5z" style="stroke: rgb(51, 51, 51); fill: none; stroke-width: 1px;"/></g></g></g></g></g></svg>