<svg xmlns="http://www.w3.org/2000/svg" id="export" class="canvas" preserveAspectRatio="xMidYMid meet" style="position: absolute; margin: 0px;" width="75" height="97"><rect id="background" fill="#fff" pointer-events="all" width="75" height="97"/><g id="origin" transform="translate(3.3664062500000003, 3.3664062500000003) scale(1)"><g id="clusters" class="clusters"/><g id="edge-paths" class="edge-paths"><defs><marker id="arrowhead-vee" viewBox="0 0 10 10" refX="9" refY="5" markerUnits="strokeWidth" markerWidth="8" markerHeight="6" orient="auto" style="fill: rgb(0, 0, 0);"><path d="M 0 0 L 10 5 L 0 10 L 4 5 z" style="stroke-width: 1;"/></marker><marker id="arrowhead-vee-select" viewBox="0 0 10 10" refX="9" refY="5" markerUnits="strokeWidth" markerWidth="8" markerHeight="6" orient="auto" style="fill: rgb(238, 0, 0);"><path d="M 0 0 L 10 5 L 0 10 L 4 5 z" style="stroke-width: 1;"/></marker></defs><path class="edge-path" d="M33.6640625,23L33.6640625,26.666666666666668C33.6640625,30.333333333333332,33.6640625,37.666666666666664,33.6640625,45C33.6640625,52.333333333333336,33.6640625,59.666666666666664,33.6640625,63.333333333333336L33.6640625,67" id="edge-c.9" style="stroke: rgb(0, 0, 0); stroke-width: 1px; fill: none; marker-end: url(&quot;#arrowhead-vee&quot;);"/></g><g id="edge-labels" class="edge-labels"><g class="edge-label" transform="translate(45.0625,45)" style="opacity: 1;"><g transform="translate(-6.3984375,-7)"><text style="font-family: -apple-system, BlinkMacSystemFont, &quot;Segoe WPC&quot;, &quot;Segoe UI&quot;, Ubuntu, &quot;Droid Sans&quot;, sans-serif, &quot;PingFang SC&quot;; font-size: 10px;"><tspan xml:space="preserve" dy="1em" x="1">c.9</tspan></text></g></g></g><g id="nodes" class="nodes"><g id="node-Identity_33" class="node graph-node" transform="translate(33.6640625,11.5)" style="opacity: 1;"><g transform="translate(-33.6640625,-11.5)"><g><g class="node-item node-item-type" transform="translate(0,0)"><path d="M5,0h57.328125a5,5 0 0 1 5,5v13a5,5 0 0 1 -5,5h-57.328125a5,5 0 0 1 -5,-5v-13a5,5 0 0 1 5,-5z" style="stroke: rgb(0, 0, 0); fill: rgb(0, 0, 0); stroke-width: 0;"/><text x="6" y="16" style="font-family: -apple-system, BlinkMacSystemFont, &quot;Segoe WPC&quot;, &quot;Segoe UI&quot;, Ubuntu, &quot;Droid Sans&quot;, sans-serif, &quot;PingFang SC&quot;; font-size: 11px; text-rendering: geometricprecision; fill: rgb(255, 255, 255);">Identity_33</text><title>Identity</title></g><path class="node border" d="M5,0h57.328125a5,5 0 0 1 5,5v13a5,5 0 0 1 -5,5h-57.328125a5,5 0 0 1 -5,-5v-13a5,5 0 0 1 5,-5z" style="stroke: rgb(51, 51, 51); fill: none; stroke-width: 1px;"/></g></g></g><g class="node" transform="translate(33.6640625,78.5)" style="opacity: 1;"><g transform="translate(-13.734375,-11.5)"><g><g class="node-item graph-item-output" transform="translate(0,0)"><path d="M5,0h17.46875a5,5 0 0 1 5,5v13a5,5 0 0 1 -5,5h-17.46875a5,5 0 0 1 -5,-5v-13a5,5 0 0 1 5,-5z" style="stroke: rgb(0, 0, 0); fill: rgb(238, 238, 238); stroke-width: 0;"/><text x="6" y="16" style="font-family: -apple-system, BlinkMacSystemFont, &quot;Segoe WPC&quot;, &quot;Segoe UI&quot;, Ubuntu, &quot;Droid Sans&quot;, sans-serif, &quot;PingFang SC&quot;; font-size: 11px; text-rendering: geometricprecision;">c.9</text></g><path class="node border" d="M5,0h17.46875a5,5 0 0 1 5,5v13a5,5 0 0 1 -5,5h-17.46875a5,5 0 0 1 -5,-5v-13a5,5 0 0 1 5,-5z" style="stroke: rgb(51, 51, 51); fill: none; stroke-width: 1px;"/></g></g></g></g></g></svg>