<svg xmlns="http://www.w3.org/2000/svg" id="export" class="canvas" preserveAspectRatio="xMidYMid meet" style="position: absolute; margin: 0px;" width="57" height="163"><rect id="background" fill="#fff" pointer-events="all" width="57" height="163"/><g id="origin" transform="translate(2.5773437500000003, 2.5773437500000003) scale(1)"><g id="clusters" class="clusters"/><g id="edge-paths" class="edge-paths"><defs><marker id="arrowhead-vee" viewBox="0 0 10 10" refX="9" refY="5" markerUnits="strokeWidth" markerWidth="8" markerHeight="6" orient="auto" style="fill: rgb(0, 0, 0);"><path d="M 0 0 L 10 5 L 0 10 L 4 5 z" style="stroke-width: 1;"/></marker><marker id="arrowhead-vee-select" viewBox="0 0 10 10" refX="9" refY="5" markerUnits="strokeWidth" markerWidth="8" markerHeight="6" orient="auto" style="fill: rgb(238, 0, 0);"><path d="M 0 0 L 10 5 L 0 10 L 4 5 z" style="stroke-width: 1;"/></marker></defs><path class="edge-path" d="M25.7734375,23L25.7734375,26.666666666666668C25.7734375,30.333333333333332,25.7734375,37.666666666666664,25.7734375,45C25.7734375,52.333333333333336,25.7734375,59.666666666666664,25.7734375,63.333333333333336L25.7734375,67" id="edge-63" style="stroke: rgb(0, 0, 0); stroke-width: 1px; fill: none; marker-end: url(&quot;#arrowhead-vee&quot;);"/><path class="edge-path" d="M25.7734375,90L25.7734375,93.66666666666667C25.7734375,97.33333333333333,25.7734375,104.66666666666667,25.7734375,112C25.7734375,119.33333333333333,25.7734375,126.66666666666667,25.7734375,130.33333333333334L25.7734375,134" id="edge-64" style="stroke: rgb(0, 0, 0); stroke-width: 1px; fill: none; marker-end: url(&quot;#arrowhead-vee&quot;);"/></g><g id="edge-labels" class="edge-labels"><g class="edge-label" transform="translate(36.1640625,45)" style="opacity: 1;"><g transform="translate(-5.390625,-7)"><text style="font-family: -apple-system, BlinkMacSystemFont, &quot;Segoe WPC&quot;, &quot;Segoe UI&quot;, Ubuntu, &quot;Droid Sans&quot;, sans-serif, &quot;PingFang SC&quot;; font-size: 10px;"><tspan xml:space="preserve" dy="1em" x="1">63</tspan></text></g></g><g class="edge-label" transform="translate(36.46875,112)" style="opacity: 1;"><g transform="translate(-5.6953125,-7)"><text style="font-family: -apple-system, BlinkMacSystemFont, &quot;Segoe WPC&quot;, &quot;Segoe UI&quot;, Ubuntu, &quot;Droid Sans&quot;, sans-serif, &quot;PingFang SC&quot;; font-size: 10px;"><tspan xml:space="preserve" dy="1em" x="1">64</tspan></text></g></g></g><g id="nodes" class="nodes"><g id="node-Mul_42" class="node graph-node" transform="translate(25.7734375,11.5)" style="opacity: 1;"><g transform="translate(-24.6328125,-11.5)"><g><g class="node-item node-item-type" transform="translate(0,0)"><path d="M5,0h39.265625a5,5 0 0 1 5,5v13a5,5 0 0 1 -5,5h-39.265625a5,5 0 0 1 -5,-5v-13a5,5 0 0 1 5,-5z" style="stroke: rgb(0, 0, 0); fill: rgb(0, 0, 0); stroke-width: 0;"/><text x="6" y="16" style="font-family: -apple-system, BlinkMacSystemFont, &quot;Segoe WPC&quot;, &quot;Segoe UI&quot;, Ubuntu, &quot;Droid Sans&quot;, sans-serif, &quot;PingFang SC&quot;; font-size: 11px; text-rendering: geometricprecision; fill: rgb(255, 255, 255);">Mul_42</text><title>Mul</title></g><path class="node border" d="M5,0h39.265625a5,5 0 0 1 5,5v13a5,5 0 0 1 -5,5h-39.265625a5,5 0 0 1 -5,-5v-13a5,5 0 0 1 5,-5z" style="stroke: rgb(51, 51, 51); fill: none; stroke-width: 1px;"/></g></g></g><g id="node-Add_43" class="node graph-node" transform="translate(25.7734375,78.5)" style="opacity: 1;"><g transform="translate(-25.7734375,-11.5)"><g><g class="node-item node-item-type" transform="translate(0,0)"><path d="M5,0h41.546875a5,5 0 0 1 5,5v13a5,5 0 0 1 -5,5h-41.546875a5,5 0 0 1 -5,-5v-13a5,5 0 0 1 5,-5z" style="stroke: rgb(0, 0, 0); fill: rgb(0, 0, 0); stroke-width: 0;"/><text x="6" y="16" style="font-family: -apple-system, BlinkMacSystemFont, &quot;Segoe WPC&quot;, &quot;Segoe UI&quot;, Ubuntu, &quot;Droid Sans&quot;, sans-serif, &quot;PingFang SC&quot;; font-size: 11px; text-rendering: geometricprecision; fill: rgb(255, 255, 255);">Add_43</text><title>Add</title></g><path class="node border" d="M5,0h41.546875a5,5 0 0 1 5,5v13a5,5 0 0 1 -5,5h-41.546875a5,5 0 0 1 -5,-5v-13a5,5 0 0 1 5,-5z" style="stroke: rgb(51, 51, 51); fill: none; stroke-width: 1px;"/></g></g></g><g class="node" transform="translate(25.7734375,145.5)" style="opacity: 1;"><g transform="translate(-12.96875,-11.5)"><g><g class="node-item graph-item-output" transform="translate(0,0)"><path d="M5,0h15.9375a5,5 0 0 1 5,5v13a5,5 0 0 1 -5,5h-15.9375a5,5 0 0 1 -5,-5v-13a5,5 0 0 1 5,-5z" style="stroke: rgb(0, 0, 0); fill: rgb(238, 238, 238); stroke-width: 0;"/><text x="6" y="16" style="font-family: -apple-system, BlinkMacSystemFont, &quot;Segoe WPC&quot;, &quot;Segoe UI&quot;, Ubuntu, &quot;Droid Sans&quot;, sans-serif, &quot;PingFang SC&quot;; font-size: 11px; text-rendering: geometricprecision;">64</text></g><path class="node border" d="M5,0h15.9375a5,5 0 0 1 5,5v13a5,5 0 0 1 -5,5h-15.9375a5,5 0 0 1 -5,-5v-13a5,5 0 0 1 5,-5z" style="stroke: rgb(51, 51, 51); fill: none; stroke-width: 1px;"/></g></g></g></g></g></svg>